<svg version="1.1" viewBox="0.0 0.0 600.0 371.0" fill="none" stroke="none" stroke-linecap="square" stroke-miterlimit="10" width="600" height="371" xmlns:xlink="http://www.w3.org/1999/xlink" xmlns="http://www.w3.org/2000/svg"><path fill="#000000" d="M0 0L600.0 0L600.0 371.0L0 371.0L0 0Z" fill-rule="nonzero"/><path fill="#000000" d="M18.55 18.55L474.19 18.55L474.19 352.44998L18.55 352.44998L18.55 18.55Z" fill-rule="nonzero"/><path stroke="#333333" stroke-width="1.0" stroke-linecap="butt" d="M246.0 186.0C246.0 186.0 246.0 186.0 246.0 186.0C246.0 186.0 246.0 186.0 246.0 186.0C246.0 186.0 246.0 186.0 246.0 186.0C246.0 186.0 246.0 186.0 246.0 186.0" fill-rule="nonzero"/><path fill="#000000" d="M226.0625 179.35938Q226.0625 181.26562 225.40625 182.20312Q224.76562 183.125 223.375 183.125Q222.01562 183.125 221.35938 182.21875Q220.70312 181.3125 220.67188 179.5L220.67188 178.0625Q220.67188 176.17188 221.3125 175.26562Q221.96875 174.34375 223.35938 174.34375Q224.73438 174.34375 225.39062 175.23438Q226.04688 176.10938 226.0625 177.95312L226.0625 179.35938ZM224.96875 177.875Q224.96875 176.5 224.57812 175.875Q224.20312 175.23438 223.35938 175.23438Q222.53125 175.23438 222.14062 175.875Q221.76562 176.5 221.76562 177.79688L221.76562 179.53125Q221.76562 180.90625 222.15625 181.57812Q222.5625 182.23438 223.375 182.23438Q224.17188 182.23438 224.5625 181.60938Q224.95312 180.98438 224.96875 179.65625L224.96875 177.875ZM227.84375 182.4375Q227.84375 182.15625 228.0 181.96875Q228.17188 181.78125 228.5 181.78125Q228.84375 181.78125 229.01562 181.96875Q229.1875 182.15625 229.1875 182.4375Q229.1875 182.70312 229.01562 182.89062Q228.84375 183.0625 228.5 183.0625Q228.17188 183.0625 228.0 182.89062Q227.84375 182.70312 227.84375 182.4375ZM236.0625 179.35938Q236.0625 181.26562 235.40625 182.20312Q234.76562 183.125 233.375 183.125Q232.01562 183.125 231.35938 182.21875Q230.70312 181.3125 230.67188 179.5L230.67188 178.0625Q230.67188 176.17188 231.3125 175.26562Q231.96875 174.34375 233.35938 174.34375Q234.73438 174.34375 235.39062 175.23438Q236.04688 176.10938 236.0625 177.95312L236.0625 179.35938ZM234.96875 177.875Q234.96875 176.5 234.57812 175.875Q234.20312 175.23438 233.35938 175.23438Q232.53125 175.23438 232.14062 175.875Q231.76562 176.5 231.76562 177.79688L231.76562 179.53125Q231.76562 180.90625 232.15625 181.57812Q232.5625 182.23438 233.375 182.23438Q234.17188 182.23438 234.5625 181.60938Q234.95312 180.98438 234.96875 179.65625L234.96875 177.875ZM243.0625 179.35938Q243.0625 181.26562 242.40625 182.20312Q241.76562 183.125 240.375 183.125Q239.01562 183.125 238.35938 182.21875Q237.70312 181.3125 237.67188 179.5L237.67188 178.0625Q237.67188 176.17188 238.3125 175.26562Q238.96875 174.34375 240.35938 174.34375Q241.73438 174.34375 242.39062 175.23438Q243.04688 176.10938 243.0625 177.95312L243.0625 179.35938ZM241.96875 177.875Q241.96875 176.5 241.57812 175.875Q241.20312 175.23438 240.35938 175.23438Q239.53125 175.23438 239.14062 175.875Q238.76562 176.5 238.76562 177.79688L238.76562 179.53125Q238.76562 180.90625 239.15625 181.57812Q239.5625 182.23438 240.375 182.23438Q241.17188 182.23438 241.5625 181.60938Q241.95312 180.98438 241.96875 179.65625L241.96875 177.875Z" fill-rule="nonzero"/><path stroke="#333333" stroke-width="1.0" stroke-linecap="butt" d="M290.98334 186.0C290.98334 161.15639 270.8436 141.01666 246.0 141.01666C221.15639 141.01666 201.01666 161.15639 201.01666 186.0C201.01666 210.84361 221.15639 230.98334 246.0 230.98334C270.8436 230.98334 290.98334 210.84361 290.98334 186.0" fill-rule="nonzero"/><path fill="#000000" d="M224.26562 138.01666L223.1875 138.01666L223.1875 130.79791L221.0 131.59479L221.0 130.61041L224.10938 129.43854L224.26562 129.43854L224.26562 138.01666ZM227.84375 137.45416Q227.84375 137.17291 228.0 136.98541Q228.17188 136.79791 228.5 136.79791Q228.84375 136.79791 229.01562 136.98541Q229.1875 137.17291 229.1875 137.45416Q229.1875 137.71979 229.01562 137.90729Q228.84375 138.07916 228.5 138.07916Q228.17188 138.07916 228.0 137.90729Q227.84375 137.71979 227.84375 137.45416ZM236.0625 134.37604Q236.0625 136.28229 235.40625 137.21979Q234.76562 138.14166 233.375 138.14166Q232.01562 138.14166 231.35938 137.23541Q230.70312 136.32916 230.67188 134.51666L230.67188 133.07916Q230.67188 131.18854 231.3125 130.28229Q231.96875 129.36041 233.35938 129.36041Q234.73438 129.36041 235.39062 130.25104Q236.04688 131.12604 236.0625 132.96979L236.0625 134.37604ZM234.96875 132.89166Q234.96875 131.51666 234.57812 130.89166Q234.20312 130.25104 233.35938 130.25104Q232.53125 130.25104 232.14062 130.89166Q231.76562 131.51666 231.76562 132.81354L231.76562 134.54791Q231.76562 135.92291 232.15625 136.59479Q232.5625 137.25104 233.375 137.25104Q234.17188 137.25104 234.5625 136.62604Q234.95312 136.00104 234.96875 134.67291L234.96875 132.89166ZM243.0625 134.37604Q243.0625 136.28229 242.40625 137.21979Q241.76562 138.14166 240.375 138.14166Q239.01562 138.14166 238.35938 137.23541Q237.70312 136.32916 237.67188 134.51666L237.67188 133.07916Q237.67188 131.18854 238.3125 130.28229Q238.96875 129.36041 240.35938 129.36041Q241.73438 129.36041 242.39062 130.25104Q243.04688 131.12604 243.0625 132.96979L243.0625 134.37604ZM241.96875 132.89166Q241.96875 131.51666 241.57812 130.89166Q241.20312 130.25104 240.35938 130.25104Q239.53125 130.25104 239.14062 130.89166Q238.76562 131.51666 238.76562 132.81354L238.76562 134.54791Q238.76562 135.92291 239.15625 136.59479Q239.5625 137.25104 240.375 137.25104Q241.17188 137.25104 241.5625 136.62604Q241.95312 136.00104 241.96875 134.67291L241.96875 132.89166Z" fill-rule="nonzero"/><path stroke="#333333" stroke-width="1.0" stroke-linecap="butt" d="M335.96667 186.0C335.96667 136.31277 295.68723 96.03333 246.0 96.03333C196.31277 96.03333 156.03334 136.31277 156.03334 186.0C156.03334 235.68723 196.31277 275.96667 246.0 275.96667C295.68723 275.96667 335.96667 235.68723 335.96667 186.0" fill-rule="nonzero"/><path fill="#000000" d="M226.29688 93.03333L220.70312 93.03333L220.70312 92.25208L223.65625 88.97083Q224.3125 88.22083 224.5625 87.76771Q224.8125 87.29896 224.8125 86.79896Q224.8125 86.12708 224.40625 85.70521Q224.01562 85.26771 223.32812 85.26771Q222.53125 85.26771 222.07812 85.73646Q221.625 86.18958 221.625 87.01771L220.54688 87.01771Q220.54688 85.83021 221.29688 85.11146Q222.0625 84.37708 223.32812 84.37708Q224.53125 84.37708 225.21875 85.00208Q225.90625 85.62708 225.90625 86.67396Q225.90625 87.92396 224.29688 89.67396L222.01562 92.14271L226.29688 92.14271L226.29688 93.03333ZM227.84375 92.47083Q227.84375 92.18958 228.0 92.00208Q228.17188 91.81458 228.5 91.81458Q228.84375 91.81458 229.01562 92.00208Q229.1875 92.18958 229.1875 92.47083Q229.1875 92.73646 229.01562 92.92396Q228.84375 93.09583 228.5 93.09583Q228.17188 93.09583 228.0 92.92396Q227.84375 92.73646 227.84375 92.47083ZM236.0625 89.39271Q236.0625 91.29896 235.40625 92.23646Q234.76562 93.15833 233.375 93.15833Q232.01562 93.15833 231.35938 92.25208Q230.70312 91.34583 230.67188 89.53333L230.67188 88.09583Q230.67188 86.20521 231.3125 85.29896Q231.96875 84.37708 233.35938 84.37708Q234.73438 84.37708 235.39062 85.26771Q236.04688 86.14271 236.0625 87.98646L236.0625 89.39271ZM234.96875 87.90833Q234.96875 86.53333 234.57812 85.90833Q234.20312 85.26771 233.35938 85.26771Q232.53125 85.26771 232.14062 85.90833Q231.76562 86.53333 231.76562 87.83021L231.76562 89.56458Q231.76562 90.93958 232.15625 91.61146Q232.5625 92.26771 233.375 92.26771Q234.17188 92.26771 234.5625 91.64271Q234.95312 91.01771 234.96875 89.68958L234.96875 87.90833ZM243.0625 89.39271Q243.0625 91.29896 242.40625 92.23646Q241.76562 93.15833 240.375 93.15833Q239.01562 93.15833 238.35938 92.25208Q237.70312 91.34583 237.67188 89.53333L237.67188 88.09583Q237.67188 86.20521 238.3125 85.29896Q238.96875 84.37708 240.35938 84.37708Q241.73438 84.37708 242.39062 85.26771Q243.04688 86.14271 243.0625 87.98646L243.0625 89.39271ZM241.96875 87.90833Q241.96875 86.53333 241.57812 85.90833Q241.20312 85.26771 240.35938 85.26771Q239.53125 85.26771 239.14062 85.90833Q238.76562 86.53333 238.76562 87.83021L238.76562 89.56458Q238.76562 90.93958 239.15625 91.61146Q239.5625 92.26771 240.375 92.26771Q241.17188 92.26771 241.5625 91.64271Q241.95312 91.01771 241.96875 89.68958L241.96875 87.90833Z" fill-rule="nonzero"/><path stroke="#333333" stroke-width="1.0" stroke-linecap="butt" d="M380.95 186.0C380.95 111.46917 320.53082 51.05 246.0 51.05C171.46918 51.05 111.05 111.46917 111.05 186.0C111.05 260.53082 171.46918 320.95 246.0 320.95C320.53082 320.95 380.95 260.53082 380.95 186.0" fill-rule="nonzero"/><path fill="#000000" d="M222.28125 43.253124L223.09375 43.253124Q223.875 43.2375 224.3125 42.846874Q224.75 42.45625 224.75 41.784374Q224.75 40.284374 223.25 40.284374Q222.54688 40.284374 222.125 40.690624Q221.71875 41.096874 221.71875 41.753124L220.625 41.753124Q220.625 40.7375 221.35938 40.065624Q222.10938 39.39375 223.25 39.39375Q224.45312 39.39375 225.14062 40.034374Q225.82812 40.675 225.82812 41.815624Q225.82812 42.378124 225.46875 42.89375Q225.10938 43.409374 224.48438 43.675Q225.1875 43.89375 225.5625 44.409374Q225.95312 44.925 225.95312 45.675Q225.95312 46.815624 225.20312 47.503124Q224.45312 48.175 223.25 48.175Q222.0625 48.175 221.29688 47.51875Q220.54688 46.8625 220.54688 45.8L221.64062 45.8Q221.64062 46.471874 222.07812 46.878124Q222.51562 47.284374 223.26562 47.284374Q224.04688 47.284374 224.45312 46.878124Q224.875 46.45625 224.875 45.690624Q224.875 44.95625 224.42188 44.565624Q223.96875 44.159374 223.09375 44.14375L222.28125 44.14375L222.28125 43.253124ZM227.84375 47.4875Q227.84375 47.20625 228.0 47.01875Q228.17188 46.83125 228.5 46.83125Q228.84375 46.83125 229.01562 47.01875Q229.1875 47.20625 229.1875 47.4875Q229.1875 47.753124 229.01562 47.940624Q228.84375 48.1125 228.5 48.1125Q228.17188 48.1125 228.0 47.940624Q227.84375 47.753124 227.84375 47.4875ZM236.0625 44.409374Q236.0625 46.315624 235.40625 47.253124Q234.76562 48.175 233.375 48.175Q232.01562 48.175 231.35938 47.26875Q230.70312 46.3625 230.67188 44.55L230.67188 43.1125Q230.67188 41.221874 231.3125 40.315624Q231.96875 39.39375 233.35938 39.39375Q234.73438 39.39375 235.39062 40.284374Q236.04688 41.159374 236.0625 43.003124L236.0625 44.409374ZM234.96875 42.925Q234.96875 41.55 234.57812 40.925Q234.20312 40.284374 233.35938 40.284374Q232.53125 40.284374 232.14062 40.925Q231.76562 41.55 231.76562 42.846874L231.76562 44.58125Q231.76562 45.95625 232.15625 46.628124Q232.5625 47.284374 233.375 47.284374Q234.17188 47.284374 234.5625 46.659374Q234.95312 46.034374 234.96875 44.70625L234.96875 42.925ZM243.0625 44.409374Q243.0625 46.315624 242.40625 47.253124Q241.76562 48.175 240.375 48.175Q239.01562 48.175 238.35938 47.26875Q237.70312 46.3625 237.67188 44.55L237.67188 43.1125Q237.67188 41.221874 238.3125 40.315624Q238.96875 39.39375 240.35938 39.39375Q241.73438 39.39375 242.39062 40.284374Q243.04688 41.159374 243.0625 43.003124L243.0625 44.409374ZM241.96875 42.925Q241.96875 41.55 241.57812 40.925Q241.20312 40.284374 240.35938 40.284374Q239.53125 40.284374 239.14062 40.925Q238.76562 41.55 238.76562 42.846874L238.76562 44.58125Q238.76562 45.95625 239.15625 46.628124Q239.5625 47.284374 240.375 47.284374Q241.17188 47.284374 241.5625 46.659374Q241.95312 46.034374 241.96875 44.70625L241.96875 42.925Z" fill-rule="nonzero"/><path stroke="#333333" stroke-width="1.0" stroke-linecap="butt" d="M246.0 186.0L246.0 51.0" fill-rule="nonzero"/><path fill="#000000" d="M248.5625 29.859375Q248.5625 31.765625 247.90625 32.703125Q247.26562 33.625 245.875 33.625Q244.51562 33.625 243.85938 32.71875Q243.20312 31.8125 243.17188 30.0L243.17188 28.5625Q243.17188 26.671875 243.8125 25.765625Q244.46875 24.84375 245.85938 24.84375Q247.23438 24.84375 247.89062 25.734375Q248.54688 26.609375 248.5625 28.453125L248.5625 29.859375ZM247.46875 28.375Q247.46875 27.0 247.07812 26.375Q246.70312 25.734375 245.85938 25.734375Q245.03125 25.734375 244.64062 26.375Q244.26562 27.0 244.26562 28.296875L244.26562 30.03125Q244.26562 31.40625 244.65625 32.078125Q245.0625 32.734375 245.875 32.734375Q246.67188 32.734375 247.0625 32.109375Q247.45312 31.484375 247.46875 30.15625L247.46875 28.375Z" fill-rule="nonzero"/><path stroke="#333333" stroke-width="1.0" stroke-linecap="butt" d="M246.0 186.0L281.0 56.0" fill-rule="nonzero"/><path fill="#000000" d="M287.76562 38.5L286.6875 38.5L286.6875 31.28125L284.5 32.078125L284.5 31.09375L287.60938 29.921875L287.76562 29.921875L287.76562 38.5Z" fill-rule="nonzero"/><path stroke="#333333" stroke-width="1.0" stroke-linecap="butt" d="M246.0 186.0L313.0 69.0" fill-rule="nonzero"/><path fill="#000000" d="M327.79688 54.5L322.20312 54.5L322.20312 53.71875L325.15625 50.4375Q325.8125 49.6875 326.0625 49.234375Q326.3125 48.765625 326.3125 48.265625Q326.3125 47.59375 325.90625 47.171875Q325.51562 46.734375 324.82812 46.734375Q324.03125 46.734375 323.57812 47.203125Q323.125 47.65625 323.125 48.484375L322.04688 48.484375Q322.04688 47.296875 322.79688 46.578125Q323.5625 45.84375 324.82812 45.84375Q326.03125 45.84375 326.71875 46.46875Q327.40625 47.09375 327.40625 48.140625Q327.40625 49.390625 325.79688 51.140625L323.51562 53.609375L327.79688 53.609375L327.79688 54.5Z" fill-rule="nonzero"/><path stroke="#333333" stroke-width="1.0" stroke-linecap="butt" d="M246.0 186.0L341.0 91.0" fill-rule="nonzero"/><path fill="#000000" d="M355.78125 74.703125L356.59375 74.703125Q357.375 74.6875 357.8125 74.296875Q358.25 73.90625 358.25 73.234375Q358.25 71.734375 356.75 71.734375Q356.04688 71.734375 355.625 72.140625Q355.21875 72.546875 355.21875 73.203125L354.125 73.203125Q354.125 72.1875 354.85938 71.515625Q355.60938 70.84375 356.75 70.84375Q357.95312 70.84375 358.64062 71.484375Q359.32812 72.125 359.32812 73.265625Q359.32812 73.828125 358.96875 74.34375Q358.60938 74.859375 357.98438 75.125Q358.6875 75.34375 359.0625 75.859375Q359.45312 76.375 359.45312 77.125Q359.45312 78.265625 358.70312 78.953125Q357.95312 79.625 356.75 79.625Q355.5625 79.625 354.79688 78.96875Q354.04688 78.3125 354.04688 77.25L355.14062 77.25Q355.14062 77.921875 355.57812 78.328125Q356.01562 78.734375 356.76562 78.734375Q357.54688 78.734375 357.95312 78.328125Q358.375 77.90625 358.375 77.140625Q358.375 76.40625 357.92188 76.015625Q357.46875 75.609375 356.59375 75.59375L355.78125 75.59375L355.78125 74.703125Z" fill-rule="nonzero"/><path stroke="#333333" stroke-width="1.0" stroke-linecap="butt" d="M246.0 186.0L363.0 119.0" fill-rule="nonzero"/><path fill="#000000" d="M383.78125 108.640625L384.96875 108.640625L384.96875 109.515625L383.78125 109.515625L383.78125 111.5L382.70312 111.5L382.70312 109.515625L378.8125 109.515625L378.8125 108.875L382.625 102.96875L383.78125 102.96875L383.78125 108.640625ZM380.04688 108.640625L382.70312 108.640625L382.70312 104.453125L382.5625 104.6875L380.04688 108.640625Z" fill-rule="nonzero"/><path stroke="#333333" stroke-width="1.0" stroke-linecap="butt" d="M246.0 186.0L376.0 151.0" fill-rule="nonzero"/><path fill="#000000" d="M395.70312 145.21875L396.14062 140.96875L400.51562 140.96875L400.51562 141.96875L397.0625 141.96875L396.79688 144.29688Q397.4375 143.92188 398.23438 143.92188Q399.39062 143.92188 400.07812 144.70312Q400.76562 145.46875 400.76562 146.78125Q400.76562 148.09375 400.04688 148.85938Q399.34375 149.625 398.0625 149.625Q396.9375 149.625 396.21875 149.0Q395.5 148.35938 395.40625 147.25L396.42188 147.25Q396.53125 147.98438 396.95312 148.35938Q397.375 148.73438 398.0625 148.73438Q398.8125 148.73438 399.25 148.21875Q399.6875 147.70312 399.6875 146.79688Q399.6875 145.9375 399.21875 145.42188Q398.75 144.90625 397.96875 144.90625Q397.26562 144.90625 396.85938 145.20312L396.57812 145.4375L395.70312 145.21875Z" fill-rule="nonzero"/><path stroke="#333333" stroke-width="1.0" stroke-linecap="butt" d="M246.0 186.0L381.0 186.0" fill-rule="nonzero"/><path fill="#000000" d="M404.46875 181.96875L404.46875 182.875L404.26562 182.875Q403.0 182.90625 402.25 183.64062Q401.5 184.35938 401.375 185.67188Q402.0625 184.90625 403.21875 184.90625Q404.32812 184.90625 405.0 185.6875Q405.67188 186.46875 405.67188 187.71875Q405.67188 189.03125 404.95312 189.82812Q404.23438 190.625 403.01562 190.625Q401.79688 190.625 401.03125 189.6875Q400.28125 188.73438 400.28125 187.25L400.28125 186.84375Q400.28125 184.48438 401.28125 183.23438Q402.28125 181.98438 404.26562 181.96875L404.46875 181.96875ZM403.04688 185.8125Q402.48438 185.8125 402.01562 186.14062Q401.54688 186.46875 401.35938 186.98438L401.35938 187.375Q401.35938 188.4375 401.82812 189.07812Q402.3125 189.71875 403.01562 189.71875Q403.75 189.71875 404.17188 189.1875Q404.59375 188.64062 404.59375 187.76562Q404.59375 186.89062 404.17188 186.35938Q403.75 185.8125 403.04688 185.8125Z" fill-rule="nonzero"/><path stroke="#333333" stroke-width="1.0" stroke-linecap="butt" d="M246.0 186.0L376.0 221.0" fill-rule="nonzero"/><path fill="#000000" d="M400.71875 223.57812L397.1875 231.5L396.04688 231.5L399.5625 223.85938L394.95312 223.85938L394.95312 222.96875L400.71875 222.96875L400.71875 223.57812Z" fill-rule="nonzero"/><path stroke="#333333" stroke-width="1.0" stroke-linecap="butt" d="M246.0 186.0L363.0 253.0" fill-rule="nonzero"/><path fill="#000000" d="M384.39062 263.1875Q384.39062 263.82812 384.04688 264.32812Q383.70312 264.82812 383.14062 265.10938Q383.79688 265.39062 384.1875 265.95312Q384.57812 266.5 384.57812 267.20312Q384.57812 268.29688 383.82812 268.96875Q383.09375 269.625 381.875 269.625Q380.64062 269.625 379.89062 268.96875Q379.15625 268.29688 379.15625 267.20312Q379.15625 266.5 379.53125 265.95312Q379.90625 265.39062 380.57812 265.10938Q380.01562 264.82812 379.6875 264.32812Q379.35938 263.82812 379.35938 263.1875Q379.35938 262.10938 380.04688 261.48438Q380.73438 260.84375 381.875 260.84375Q383.0 260.84375 383.6875 261.48438Q384.39062 262.10938 384.39062 263.1875ZM383.5 267.17188Q383.5 266.45312 383.04688 266.01562Q382.59375 265.5625 381.85938 265.5625Q381.125 265.5625 380.67188 266.01562Q380.23438 266.45312 380.23438 267.1875Q380.23438 267.90625 380.67188 268.32812Q381.10938 268.73438 381.875 268.73438Q382.625 268.73438 383.0625 268.3125Q383.5 267.89062 383.5 267.17188ZM381.875 261.73438Q381.23438 261.73438 380.82812 262.14062Q380.4375 262.53125 380.4375 263.21875Q380.4375 263.85938 380.82812 264.26562Q381.21875 264.67188 381.85938 264.67188Q382.51562 264.67188 382.90625 264.26562Q383.29688 263.85938 383.29688 263.21875Q383.29688 262.5625 382.89062 262.15625Q382.48438 261.73438 381.875 261.73438Z" fill-rule="nonzero"/><path stroke="#333333" stroke-width="1.0" stroke-linecap="butt" d="M246.0 186.0L341.0 281.0" fill-rule="nonzero"/><path fill="#000000" d="M358.35938 297.75Q358.03125 298.15625 357.54688 298.40625Q357.07812 298.64062 356.51562 298.64062Q355.78125 298.64062 355.23438 298.28125Q354.6875 297.92188 354.39062 297.26562Q354.09375 296.59375 354.09375 295.79688Q354.09375 294.95312 354.40625 294.26562Q354.73438 293.57812 355.32812 293.21875Q355.9375 292.84375 356.73438 292.84375Q358.0 292.84375 358.71875 293.79688Q359.45312 294.75 359.45312 296.375L359.45312 296.6875Q359.45312 299.1875 358.46875 300.32812Q357.48438 301.46875 355.5 301.5L355.28125 301.5L355.28125 300.59375L355.51562 300.59375Q356.85938 300.5625 357.57812 299.89062Q358.29688 299.21875 358.35938 297.75ZM356.6875 297.75Q357.23438 297.75 357.6875 297.42188Q358.15625 297.07812 358.375 296.59375L358.375 296.15625Q358.375 295.09375 357.90625 294.42188Q357.4375 293.75 356.73438 293.75Q356.01562 293.75 355.57812 294.29688Q355.15625 294.84375 355.15625 295.75Q355.15625 296.625 355.5625 297.1875Q355.98438 297.75 356.6875 297.75Z" fill-rule="nonzero"/><path stroke="#333333" stroke-width="1.0" stroke-linecap="butt" d="M246.0 186.0L313.0 303.0" fill-rule="nonzero"/><path fill="#000000" d="M322.26562 326.5L321.1875 326.5L321.1875 319.28125L319.0 320.07812L319.0 319.09375L322.10938 317.92188L322.26562 317.92188L322.26562 326.5ZM331.0625 322.85938Q331.0625 324.76562 330.40625 325.70312Q329.76562 326.625 328.375 326.625Q327.01562 326.625 326.35938 325.71875Q325.70312 324.8125 325.67188 323.0L325.67188 321.5625Q325.67188 319.67188 326.3125 318.76562Q326.96875 317.84375 328.35938 317.84375Q329.73438 317.84375 330.39062 318.73438Q331.04688 319.60938 331.0625 321.45312L331.0625 322.85938ZM329.96875 321.375Q329.96875 320.0 329.57812 319.375Q329.20312 318.73438 328.35938 318.73438Q327.53125 318.73438 327.14062 319.375Q326.76562 320.0 326.76562 321.29688L326.76562 323.03125Q326.76562 324.40625 327.15625 325.07812Q327.5625 325.73438 328.375 325.73438Q329.17188 325.73438 329.5625 325.10938Q329.95312 324.48438 329.96875 323.15625L329.96875 321.375Z" fill-rule="nonzero"/><path stroke="#333333" stroke-width="1.0" stroke-linecap="butt" d="M246.0 186.0L281.0 316.0" fill-rule="nonzero"/><path fill="#000000" d="M284.26562 342.5L283.1875 342.5L283.1875 335.28125L281.0 336.07812L281.0 335.09375L284.10938 333.92188L284.26562 333.92188L284.26562 342.5ZM291.26562 342.5L290.1875 342.5L290.1875 335.28125L288.0 336.07812L288.0 335.09375L291.10938 333.92188L291.26562 333.92188L291.26562 342.5Z" fill-rule="nonzero"/><path stroke="#333333" stroke-width="1.0" stroke-linecap="butt" d="M246.0 186.0L246.0 321.0" fill-rule="nonzero"/><path fill="#000000" d="M243.26562 347.5L242.1875 347.5L242.1875 340.28125L240.0 341.07812L240.0 340.09375L243.10938 338.92188L243.26562 338.92188L243.26562 347.5ZM252.29688 347.5L246.70312 347.5L246.70312 346.71875L249.65625 343.4375Q250.3125 342.6875 250.5625 342.23438Q250.8125 341.76562 250.8125 341.26562Q250.8125 340.59375 250.40625 340.17188Q250.01562 339.73438 249.32812 339.73438Q248.53125 339.73438 248.07812 340.20312Q247.625 340.65625 247.625 341.48438L246.54688 341.48438Q246.54688 340.29688 247.29688 339.57812Q248.0625 338.84375 249.32812 338.84375Q250.53125 338.84375 251.21875 339.46875Q251.90625 340.09375 251.90625 341.14062Q251.90625 342.39062 250.29688 344.14062L248.01562 346.60938L252.29688 346.60938L252.29688 347.5Z" fill-rule="nonzero"/><path stroke="#333333" stroke-width="1.0" stroke-linecap="butt" d="M246.0 186.0L211.0 316.0" fill-rule="nonzero"/><path fill="#000000" d="M202.26562 342.5L201.1875 342.5L201.1875 335.28125L199.0 336.07812L199.0 335.09375L202.10938 333.92188L202.26562 333.92188L202.26562 342.5ZM207.28125 337.70312L208.09375 337.70312Q208.875 337.6875 209.3125 337.29688Q209.75 336.90625 209.75 336.23438Q209.75 334.73438 208.25 334.73438Q207.54688 334.73438 207.125 335.14062Q206.71875 335.54688 206.71875 336.20312L205.625 336.20312Q205.625 335.1875 206.35938 334.51562Q207.10938 333.84375 208.25 333.84375Q209.45312 333.84375 210.14062 334.48438Q210.82812 335.125 210.82812 336.26562Q210.82812 336.82812 210.46875 337.34375Q210.10938 337.85938 209.48438 338.125Q210.1875 338.34375 210.5625 338.85938Q210.95312 339.375 210.95312 340.125Q210.95312 341.26562 210.20312 341.95312Q209.45312 342.625 208.25 342.625Q207.0625 342.625 206.29688 341.96875Q205.54688 341.3125 205.54688 340.25L206.64062 340.25Q206.64062 340.92188 207.07812 341.32812Q207.51562 341.73438 208.26562 341.73438Q209.04688 341.73438 209.45312 341.32812Q209.875 340.90625 209.875 340.14062Q209.875 339.40625 209.42188 339.01562Q208.96875 338.60938 208.09375 338.59375L207.28125 338.59375L207.28125 337.70312Z" fill-rule="nonzero"/><path stroke="#333333" stroke-width="1.0" stroke-linecap="butt" d="M246.0 186.0L179.0 303.0" fill-rule="nonzero"/><path fill="#000000" d="M164.26562 326.5L163.1875 326.5L163.1875 319.28125L161.0 320.07812L161.0 319.09375L164.10938 317.92188L164.26562 317.92188L164.26562 326.5ZM172.28125 323.64062L173.46875 323.64062L173.46875 324.51562L172.28125 324.51562L172.28125 326.5L171.20312 326.5L171.20312 324.51562L167.3125 324.51562L167.3125 323.875L171.125 317.96875L172.28125 317.96875L172.28125 323.64062ZM168.54688 323.64062L171.20312 323.64062L171.20312 319.45312L171.0625 319.6875L168.54688 323.64062Z" fill-rule="nonzero"/><path stroke="#333333" stroke-width="1.0" stroke-linecap="butt" d="M246.0 186.0L151.0 281.0" fill-rule="nonzero"/><path fill="#000000" d="M132.26562 301.5L131.1875 301.5L131.1875 294.28125L129.0 295.07812L129.0 294.09375L132.10938 292.92188L132.26562 292.92188L132.26562 301.5ZM136.20312 297.21875L136.64062 292.96875L141.01562 292.96875L141.01562 293.96875L137.5625 293.96875L137.29688 296.29688Q137.9375 295.92188 138.73438 295.92188Q139.89062 295.92188 140.57812 296.70312Q141.26562 297.46875 141.26562 298.78125Q141.26562 300.09375 140.54688 300.85938Q139.84375 301.625 138.5625 301.625Q137.4375 301.625 136.71875 301.0Q136.0 300.35938 135.90625 299.25L136.92188 299.25Q137.03125 299.98438 137.45312 300.35938Q137.875 300.73438 138.5625 300.73438Q139.3125 300.73438 139.75 300.21875Q140.1875 299.70312 140.1875 298.79688Q140.1875 297.9375 139.71875 297.42188Q139.25 296.90625 138.46875 296.90625Q137.76562 296.90625 137.35938 297.20312L137.07812 297.4375L136.20312 297.21875Z" fill-rule="nonzero"/><path stroke="#333333" stroke-width="1.0" stroke-linecap="butt" d="M246.0 186.0L129.0 253.0" fill-rule="nonzero"/><path fill="#000000" d="M107.265625 269.5L106.1875 269.5L106.1875 262.28125L104.0 263.07812L104.0 262.09375L107.109375 260.92188L107.265625 260.92188L107.265625 269.5ZM114.96875 260.96875L114.96875 261.875L114.765625 261.875Q113.5 261.90625 112.75 262.64062Q112.0 263.35938 111.875 264.67188Q112.5625 263.90625 113.71875 263.90625Q114.828125 263.90625 115.5 264.6875Q116.171875 265.46875 116.171875 266.71875Q116.171875 268.03125 115.453125 268.82812Q114.734375 269.625 113.515625 269.625Q112.296875 269.625 111.53125 268.6875Q110.78125 267.73438 110.78125 266.25L110.78125 265.84375Q110.78125 263.48438 111.78125 262.23438Q112.78125 260.98438 114.765625 260.96875L114.96875 260.96875ZM113.546875 264.8125Q112.984375 264.8125 112.515625 265.14062Q112.046875 265.46875 111.859375 265.98438L111.859375 266.375Q111.859375 267.4375 112.328125 268.07812Q112.8125 268.71875 113.515625 268.71875Q114.25 268.71875 114.671875 268.1875Q115.09375 267.64062 115.09375 266.76562Q115.09375 265.89062 114.671875 265.35938Q114.25 264.8125 113.546875 264.8125Z" fill-rule="nonzero"/><path stroke="#333333" stroke-width="1.0" stroke-linecap="butt" d="M246.0 186.0L116.0 221.0" fill-rule="nonzero"/><path fill="#000000" d="M91.265625 231.5L90.1875 231.5L90.1875 224.28125L88.0 225.07812L88.0 224.09375L91.109375 222.92188L91.265625 222.92188L91.265625 231.5ZM100.21875 223.57812L96.6875 231.5L95.546875 231.5L99.0625 223.85938L94.453125 223.85938L94.453125 222.96875L100.21875 222.96875L100.21875 223.57812Z" fill-rule="nonzero"/><path stroke="#333333" stroke-width="1.0" stroke-linecap="butt" d="M246.0 186.0L111.0 186.0" fill-rule="nonzero"/><path fill="#000000" d="M86.265625 190.5L85.1875 190.5L85.1875 183.28125L83.0 184.07812L83.0 183.09375L86.109375 181.92188L86.265625 181.92188L86.265625 190.5ZM94.890625 184.1875Q94.890625 184.82812 94.546875 185.32812Q94.203125 185.82812 93.640625 186.10938Q94.296875 186.39062 94.6875 186.95312Q95.078125 187.5 95.078125 188.20312Q95.078125 189.29688 94.328125 189.96875Q93.59375 190.625 92.375 190.625Q91.140625 190.625 90.390625 189.96875Q89.65625 189.29688 89.65625 188.20312Q89.65625 187.5 90.03125 186.95312Q90.40625 186.39062 91.078125 186.10938Q90.515625 185.82812 90.1875 185.32812Q89.859375 184.82812 89.859375 184.1875Q89.859375 183.10938 90.546875 182.48438Q91.234375 181.84375 92.375 181.84375Q93.5 181.84375 94.1875 182.48438Q94.890625 183.10938 94.890625 184.1875ZM94.0 188.17188Q94.0 187.45312 93.546875 187.01562Q93.09375 186.5625 92.359375 186.5625Q91.625 186.5625 91.171875 187.01562Q90.734375 187.45312 90.734375 188.1875Q90.734375 188.90625 91.171875 189.32812Q91.609375 189.73438 92.375 189.73438Q93.125 189.73438 93.5625 189.3125Q94.0 188.89062 94.0 188.17188ZM92.375 182.73438Q91.734375 182.73438 91.328125 183.14062Q90.9375 183.53125 90.9375 184.21875Q90.9375 184.85938 91.328125 185.26562Q91.71875 185.67188 92.359375 185.67188Q93.015625 185.67188 93.40625 185.26562Q93.796875 184.85938 93.796875 184.21875Q93.796875 183.5625 93.390625 183.15625Q92.984375 182.73438 92.375 182.73438Z" fill-rule="nonzero"/><path stroke="#333333" stroke-width="1.0" stroke-linecap="butt" d="M246.0 186.0L116.0 151.0" fill-rule="nonzero"/><path fill="#000000" d="M91.265625 149.5L90.1875 149.5L90.1875 142.28125L88.0 143.07812L88.0 142.09375L91.109375 140.92188L91.265625 140.92188L91.265625 149.5ZM98.859375 145.75Q98.53125 146.15625 98.046875 146.40625Q97.578125 146.64062 97.015625 146.64062Q96.28125 146.64062 95.734375 146.28125Q95.1875 145.92188 94.890625 145.26562Q94.59375 144.59375 94.59375 143.79688Q94.59375 142.95312 94.90625 142.26562Q95.234375 141.57812 95.828125 141.21875Q96.4375 140.84375 97.234375 140.84375Q98.5 140.84375 99.21875 141.79688Q99.953125 142.75 99.953125 144.375L99.953125 144.6875Q99.953125 147.1875 98.96875 148.32812Q97.984375 149.46875 96.0 149.5L95.78125 149.5L95.78125 148.59375L96.015625 148.59375Q97.359375 148.5625 98.078125 147.89062Q98.796875 147.21875 98.859375 145.75ZM97.1875 145.75Q97.734375 145.75 98.1875 145.42188Q98.65625 145.07812 98.875 144.59375L98.875 144.15625Q98.875 143.09375 98.40625 142.42188Q97.9375 141.75 97.234375 141.75Q96.515625 141.75 96.078125 142.29688Q95.65625 142.84375 95.65625 143.75Q95.65625 144.625 96.0625 145.1875Q96.484375 145.75 97.1875 145.75Z" fill-rule="nonzero"/><path stroke="#333333" stroke-width="1.0" stroke-linecap="butt" d="M246.0 186.0L129.0 119.0" fill-rule="nonzero"/><path fill="#000000" d="M109.296875 111.5L103.703125 111.5L103.703125 110.71875L106.65625 107.4375Q107.3125 106.6875 107.5625 106.234375Q107.8125 105.765625 107.8125 105.265625Q107.8125 104.59375 107.40625 104.171875Q107.015625 103.734375 106.328125 103.734375Q105.53125 103.734375 105.078125 104.203125Q104.625 104.65625 104.625 105.484375L103.546875 105.484375Q103.546875 104.296875 104.296875 103.578125Q105.0625 102.84375 106.328125 102.84375Q107.53125 102.84375 108.21875 103.46875Q108.90625 104.09375 108.90625 105.140625Q108.90625 106.390625 107.296875 108.140625L105.015625 110.609375L109.296875 110.609375L109.296875 111.5ZM116.0625 107.859375Q116.0625 109.765625 115.40625 110.703125Q114.765625 111.625 113.375 111.625Q112.015625 111.625 111.359375 110.71875Q110.703125 109.8125 110.671875 108.0L110.671875 106.5625Q110.671875 104.671875 111.3125 103.765625Q111.96875 102.84375 113.359375 102.84375Q114.734375 102.84375 115.390625 103.734375Q116.046875 104.609375 116.0625 106.453125L116.0625 107.859375ZM114.96875 106.375Q114.96875 105.0 114.578125 104.375Q114.203125 103.734375 113.359375 103.734375Q112.53125 103.734375 112.140625 104.375Q111.765625 105.0 111.765625 106.296875L111.765625 108.03125Q111.765625 109.40625 112.15625 110.078125Q112.5625 110.734375 113.375 110.734375Q114.171875 110.734375 114.5625 110.109375Q114.953125 109.484375 114.96875 108.15625L114.96875 106.375Z" fill-rule="nonzero"/><path stroke="#333333" stroke-width="1.0" stroke-linecap="butt" d="M246.0 186.0L151.0 91.0" fill-rule="nonzero"/><path fill="#000000" d="M134.29688 79.5L128.70312 79.5L128.70312 78.71875L131.65625 75.4375Q132.3125 74.6875 132.5625 74.234375Q132.8125 73.765625 132.8125 73.265625Q132.8125 72.59375 132.40625 72.171875Q132.01562 71.734375 131.32812 71.734375Q130.53125 71.734375 130.07812 72.203125Q129.625 72.65625 129.625 73.484375L128.54688 73.484375Q128.54688 72.296875 129.29688 71.578125Q130.0625 70.84375 131.32812 70.84375Q132.53125 70.84375 133.21875 71.46875Q133.90625 72.09375 133.90625 73.140625Q133.90625 74.390625 132.29688 76.140625L130.01562 78.609375L134.29688 78.609375L134.29688 79.5ZM139.26562 79.5L138.1875 79.5L138.1875 72.28125L136.0 73.078125L136.0 72.09375L139.10938 70.921875L139.26562 70.921875L139.26562 79.5Z" fill-rule="nonzero"/><path stroke="#333333" stroke-width="1.0" stroke-linecap="butt" d="M246.0 186.0L179.0 69.0" fill-rule="nonzero"/><path fill="#000000" d="M166.29688 54.5L160.70312 54.5L160.70312 53.71875L163.65625 50.4375Q164.3125 49.6875 164.5625 49.234375Q164.8125 48.765625 164.8125 48.265625Q164.8125 47.59375 164.40625 47.171875Q164.01562 46.734375 163.32812 46.734375Q162.53125 46.734375 162.07812 47.203125Q161.625 47.65625 161.625 48.484375L160.54688 48.484375Q160.54688 47.296875 161.29688 46.578125Q162.0625 45.84375 163.32812 45.84375Q164.53125 45.84375 165.21875 46.46875Q165.90625 47.09375 165.90625 48.140625Q165.90625 49.390625 164.29688 51.140625L162.01562 53.609375L166.29688 53.609375L166.29688 54.5ZM173.29688 54.5L167.70312 54.5L167.70312 53.71875L170.65625 50.4375Q171.3125 49.6875 171.5625 49.234375Q171.8125 48.765625 171.8125 48.265625Q171.8125 47.59375 171.40625 47.171875Q171.01562 46.734375 170.32812 46.734375Q169.53125 46.734375 169.07812 47.203125Q168.625 47.65625 168.625 48.484375L167.54688 48.484375Q167.54688 47.296875 168.29688 46.578125Q169.0625 45.84375 170.32812 45.84375Q171.53125 45.84375 172.21875 46.46875Q172.90625 47.09375 172.90625 48.140625Q172.90625 49.390625 171.29688 51.140625L169.01562 53.609375L173.29688 53.609375L173.29688 54.5Z" fill-rule="nonzero"/><path stroke="#333333" stroke-width="1.0" stroke-linecap="butt" d="M246.0 186.0L211.0 56.0" fill-rule="nonzero"/><path fill="#000000" d="M204.29688 38.5L198.70312 38.5L198.70312 37.71875L201.65625 34.4375Q202.3125 33.6875 202.5625 33.234375Q202.8125 32.765625 202.8125 32.265625Q202.8125 31.59375 202.40625 31.171875Q202.01562 30.734375 201.32812 30.734375Q200.53125 30.734375 200.07812 31.203125Q199.625 31.65625 199.625 32.484375L198.54688 32.484375Q198.54688 31.296875 199.29688 30.578125Q200.0625 29.84375 201.32812 29.84375Q202.53125 29.84375 203.21875 30.46875Q203.90625 31.09375 203.90625 32.140625Q203.90625 33.390625 202.29688 35.140625L200.01562 37.609375L204.29688 37.609375L204.29688 38.5ZM207.28125 33.703125L208.09375 33.703125Q208.875 33.6875 209.3125 33.296875Q209.75 32.90625 209.75 32.234375Q209.75 30.734375 208.25 30.734375Q207.54688 30.734375 207.125 31.140625Q206.71875 31.546875 206.71875 32.203125L205.625 32.203125Q205.625 31.1875 206.35938 30.515625Q207.10938 29.84375 208.25 29.84375Q209.45312 29.84375 210.14062 30.484375Q210.82812 31.125 210.82812 32.265625Q210.82812 32.828125 210.46875 33.34375Q210.10938 33.859375 209.48438 34.125Q210.1875 34.34375 210.5625 34.859375Q210.95312 35.375 210.95312 36.125Q210.95312 37.265625 210.20312 37.953125Q209.45312 38.625 208.25 38.625Q207.0625 38.625 206.29688 37.96875Q205.54688 37.3125 205.54688 36.25L206.64062 36.25Q206.64062 36.921875 207.07812 37.328125Q207.51562 37.734375 208.26562 37.734375Q209.04688 37.734375 209.45312 37.328125Q209.875 36.90625 209.875 36.140625Q209.875 35.40625 209.42188 35.015625Q208.96875 34.609375 208.09375 34.59375L207.28125 34.59375L207.28125 33.703125Z" fill-rule="nonzero"/><path stroke="#333333" stroke-width="1.0" stroke-linecap="butt" d="M246.0 186.0L246.0 51.0" fill-rule="nonzero"/><path stroke="#4c1130" stroke-width="1.0" stroke-linecap="butt" d="M246.0 47.0C258.0 47.0 270.0 48.0 282.0 50.0C291.0 63.0 297.0 76.0 302.0 89.0C311.0 92.0 321.0 97.0 330.0 102.0C341.0 106.0 352.0 112.0 363.0 119.0C365.0 131.0 365.0 143.0 365.0 154.0C371.0 164.0 377.0 175.0 382.0 186.0C376.0 197.0 369.0 208.0 361.0 217.0C358.0 227.0 354.0 236.0 349.0 246.0C349.0 258.0 348.0 272.0 345.0 285.0C335.0 292.0 324.0 297.0 313.0 301.0C302.0 306.0 291.0 311.0 280.0 314.0C268.0 308.0 256.0 302.0 246.0 294.0C236.0 297.0 226.0 300.0 215.0 301.0C205.0 299.0 195.0 296.0 185.0 292.0C174.0 289.0 163.0 285.0 153.0 279.0C144.0 272.0 135.0 264.0 126.0 255.0C122.0 244.0 120.0 232.0 118.0 220.0C126.0 207.0 135.0 196.0 145.0 186.0C138.0 177.0 132.0 166.0 127.0 154.0C129.0 144.0 133.0 133.0 138.0 124.0C138.0 110.0 139.0 96.0 141.0 81.0C156.0 78.0 170.0 77.0 183.0 77.0C193.0 72.0 203.0 67.0 213.0 62.0C223.0 56.0 234.0 51.0 246.0 47.0Z" fill-rule="nonzero"/><path stroke="#a64d79" stroke-width="1.0" stroke-linecap="butt" d="M246.0 70.0C257.0 64.0 268.0 59.0 281.0 55.0C292.0 61.0 301.0 68.0 310.0 75.0C319.0 81.0 328.0 88.0 336.0 96.0C345.0 103.0 354.0 110.0 362.0 119.0C367.0 130.0 370.0 141.0 373.0 152.0C381.0 162.0 389.0 173.0 396.0 186.0C386.0 198.0 375.0 209.0 364.0 218.0C364.0 229.0 364.0 241.0 362.0 253.0C351.0 260.0 340.0 265.0 329.0 269.0C323.0 278.0 317.0 287.0 310.0 296.0C302.0 305.0 292.0 314.0 282.0 321.0C269.0 318.0 257.0 313.0 246.0 307.0C235.0 313.0 223.0 318.0 210.0 321.0C199.0 316.0 188.0 309.0 179.0 302.0C172.0 292.0 166.0 281.0 162.0 270.0C157.0 261.0 153.0 251.0 149.0 242.0C136.0 237.0 122.0 231.0 109.0 223.0C115.0 209.0 123.0 197.0 132.0 186.0C125.0 175.0 119.0 164.0 114.0 151.0C123.0 141.0 133.0 133.0 143.0 126.0C148.0 117.0 154.0 109.0 161.0 101.0C166.0 91.0 172.0 81.0 180.0 71.0C188.0 62.0 198.0 53.0 208.0 46.0C222.0 53.0 235.0 61.0 246.0 70.0Z" fill-rule="nonzero"/><path stroke="#c27ba0" stroke-width="1.0" stroke-linecap="butt" d="M246.0 65.0C257.0 66.0 267.0 67.0 277.0 70.0C288.0 71.0 299.0 73.0 309.0 77.0C321.0 79.0 332.0 83.0 344.0 88.0C347.0 101.0 349.0 114.0 349.0 126.0C359.0 133.0 368.0 142.0 376.0 151.0C379.0 163.0 380.0 174.0 380.0 186.0C378.0 198.0 376.0 209.0 372.0 220.0C368.0 230.0 362.0 240.0 356.0 250.0C352.0 260.0 347.0 271.0 341.0 281.0C333.0 290.0 324.0 297.0 314.0 304.0C303.0 308.0 291.0 310.0 280.0 311.0C268.0 310.0 257.0 308.0 246.0 305.0C235.0 310.0 223.0 314.0 211.0 317.0C200.0 312.0 190.0 306.0 181.0 299.0C173.0 290.0 167.0 280.0 162.0 270.0C154.0 263.0 147.0 256.0 140.0 247.0C137.0 237.0 136.0 226.0 136.0 216.0C128.0 207.0 121.0 197.0 115.0 186.0C119.0 175.0 124.0 164.0 129.0 155.0C129.0 144.0 131.0 132.0 134.0 121.0C139.0 111.0 146.0 102.0 153.0 93.0C166.0 91.0 179.0 90.0 191.0 90.0C195.0 77.0 202.0 65.0 210.0 52.0C223.0 55.0 235.0 60.0 246.0 65.0Z" fill-rule="nonzero"/><path stroke="#ead1dc" stroke-width="1.0" stroke-linecap="butt" d="M246.0 48.0C258.0 51.0 269.0 55.0 280.0 59.0C290.0 65.0 299.0 72.0 307.0 80.0C318.0 83.0 328.0 88.0 338.0 94.0C341.0 106.0 344.0 118.0 345.0 129.0C350.0 137.0 354.0 147.0 358.0 156.0C368.0 165.0 377.0 175.0 385.0 186.0C380.0 198.0 374.0 208.0 366.0 218.0C362.0 228.0 356.0 237.0 350.0 246.0C346.0 256.0 341.0 266.0 335.0 275.0C324.0 279.0 314.0 283.0 303.0 285.0C295.0 291.0 286.0 295.0 276.0 300.0C268.0 308.0 257.0 316.0 246.0 323.0C235.0 317.0 224.0 310.0 215.0 303.0C205.0 298.0 196.0 293.0 188.0 286.0C176.0 286.0 164.0 284.0 152.0 280.0C146.0 270.0 142.0 259.0 138.0 248.0C139.0 236.0 142.0 224.0 146.0 213.0C135.0 206.0 124.0 197.0 115.0 186.0C116.0 175.0 118.0 163.0 121.0 152.0C127.0 143.0 133.0 133.0 140.0 125.0C147.0 117.0 154.0 109.0 162.0 102.0C165.0 89.0 170.0 77.0 176.0 65.0C189.0 63.0 201.0 63.0 213.0 64.0C223.0 58.0 234.0 53.0 246.0 48.0Z" fill-rule="nonzero"/><path stroke="#0b5394" stroke-width="1.0" stroke-linecap="butt" d="M246.0 62.0C257.0 65.0 267.0 68.0 277.0 72.0C288.0 71.0 300.0 71.0 312.0 72.0C323.0 75.0 335.0 80.0 346.0 86.0C348.0 100.0 349.0 114.0 347.0 127.0C354.0 135.0 361.0 144.0 367.0 154.0C368.0 164.0 369.0 175.0 368.0 186.0C370.0 197.0 371.0 208.0 371.0 220.0C371.0 231.0 369.0 244.0 367.0 256.0C358.0 265.0 349.0 273.0 340.0 280.0C327.0 282.0 314.0 284.0 302.0 284.0C294.0 288.0 284.0 292.0 275.0 294.0C265.0 296.0 256.0 297.0 246.0 297.0C236.0 302.0 225.0 306.0 213.0 308.0C204.0 301.0 196.0 292.0 190.0 284.0C178.0 283.0 167.0 280.0 155.0 277.0C149.0 267.0 143.0 258.0 139.0 248.0C137.0 237.0 135.0 226.0 135.0 216.0C125.0 207.0 115.0 197.0 106.0 186.0C117.0 175.0 129.0 165.0 142.0 158.0C135.0 146.0 130.0 132.0 127.0 117.0C136.0 109.0 145.0 102.0 155.0 95.0C167.0 91.0 178.0 88.0 189.0 87.0C195.0 77.0 203.0 67.0 212.0 57.0C223.0 58.0 235.0 59.0 246.0 62.0Z" fill-rule="nonzero"/><path stroke="#6fa8dc" stroke-width="1.0" stroke-linecap="butt" d="M246.0 63.0C256.0 67.0 266.0 72.0 275.0 78.0C285.0 79.0 295.0 81.0 305.0 84.0C311.0 93.0 316.0 102.0 320.0 112.0C333.0 113.0 345.0 117.0 358.0 121.0C366.0 130.0 374.0 140.0 380.0 150.0C379.0 162.0 377.0 175.0 374.0 186.0C376.0 197.0 378.0 209.0 378.0 221.0C373.0 232.0 367.0 242.0 360.0 252.0C354.0 261.0 346.0 270.0 338.0 278.0C329.0 285.0 319.0 290.0 309.0 295.0C298.0 298.0 288.0 300.0 277.0 302.0C267.0 304.0 256.0 305.0 246.0 306.0C236.0 303.0 226.0 299.0 217.0 295.0C206.0 295.0 195.0 294.0 184.0 293.0C174.0 288.0 165.0 283.0 155.0 277.0C143.0 272.0 131.0 267.0 119.0 259.0C119.0 245.0 121.0 231.0 125.0 219.0C118.0 209.0 113.0 198.0 109.0 186.0C110.0 174.0 112.0 162.0 116.0 151.0C124.0 142.0 133.0 133.0 142.0 126.0C153.0 121.0 163.0 116.0 173.0 113.0C172.0 98.0 172.0 81.0 176.0 64.0C189.0 63.0 202.0 64.0 214.0 66.0C225.0 64.0 235.0 63.0 246.0 63.0Z" fill-rule="nonzero"/><path stroke="#b4a7d6" stroke-width="1.0" stroke-linecap="butt" d="M246.0 61.0C257.0 64.0 267.0 68.0 276.0 73.0C284.0 81.0 291.0 90.0 296.0 99.0C307.0 99.0 319.0 99.0 330.0 102.0C338.0 109.0 345.0 117.0 351.0 125.0C357.0 134.0 361.0 144.0 365.0 154.0C369.0 164.0 371.0 175.0 372.0 186.0C375.0 197.0 376.0 209.0 376.0 221.0C374.0 233.0 371.0 244.0 367.0 256.0C362.0 267.0 356.0 278.0 348.0 288.0C332.0 288.0 316.0 286.0 302.0 283.0C296.0 293.0 289.0 303.0 280.0 313.0C268.0 308.0 256.0 303.0 246.0 296.0C236.0 297.0 226.0 298.0 216.0 298.0C206.0 297.0 195.0 295.0 185.0 292.0C176.0 285.0 168.0 279.0 161.0 271.0C151.0 265.0 142.0 259.0 134.0 251.0C132.0 239.0 132.0 228.0 132.0 216.0C131.0 206.0 130.0 196.0 130.0 186.0C131.0 176.0 132.0 166.0 135.0 156.0C134.0 145.0 134.0 134.0 135.0 122.0C141.0 113.0 148.0 104.0 156.0 96.0C167.0 92.0 178.0 89.0 189.0 87.0C196.0 79.0 204.0 71.0 213.0 63.0C224.0 62.0 235.0 61.0 246.0 61.0Z" fill-rule="nonzero"/><path stroke="#4c1130" stroke-width="4.0" stroke-linecap="butt" d="M496.45 25.55L508.45 25.55" fill-rule="nonzero"/><path fill="#f3f3f3" d="M516.9969 26.784374L518.0594 26.690624Q518.1375 27.346874 518.41876 27.753124Q518.7 28.159374 519.27814 28.425Q519.8719 28.675 520.60626 28.675Q521.2469 28.675 521.7469 28.4875Q522.2469 28.284374 522.48126 27.95625Q522.73126 27.6125 522.73126 27.221874Q522.73126 26.815624 522.4969 26.51875Q522.2625 26.20625 521.73126 26.003124Q521.3719 25.8625 520.1844 25.58125Q519.0125 25.3 518.54376 25.05Q517.91876 24.721874 517.6219 24.253124Q517.325 23.76875 517.325 23.175Q517.325 22.534374 517.6844 21.971874Q518.0594 21.39375 518.7625 21.1125Q519.48126 20.815624 520.34064 20.815624Q521.29376 20.815624 522.02814 21.128124Q522.7625 21.425 523.15314 22.034374Q523.54376 22.628124 523.575 23.378124L522.48126 23.45625Q522.3875 22.64375 521.8719 22.2375Q521.3719 21.815624 520.3875 21.815624Q519.35626 21.815624 518.8875 22.190624Q518.41876 22.565624 518.41876 23.096874Q518.41876 23.565624 518.7469 23.8625Q519.075 24.159374 520.45 24.471874Q521.84064 24.784374 522.35626 25.01875Q523.10626 25.378124 523.46564 25.909374Q523.825 26.425 523.825 27.128124Q523.825 27.815624 523.4344 28.425Q523.04376 29.01875 522.3094 29.3625Q521.575 29.690624 520.65314 29.690624Q519.48126 29.690624 518.6844 29.3625Q517.90314 29.01875 517.45 28.33125Q517.0125 27.64375 516.9969 26.784374ZM529.325 29.55L529.325 28.628124Q528.59064 29.690624 527.34064 29.690624Q526.79376 29.690624 526.3094 29.4875Q525.84064 29.26875 525.60626 28.95625Q525.3719 28.628124 525.27814 28.159374Q525.21564 27.8625 525.21564 27.175L525.21564 23.33125L526.27814 23.33125L526.27814 26.784374Q526.27814 27.596874 526.34064 27.89375Q526.4344 28.3 526.7469 28.55Q527.075 28.784374 527.5594 28.784374Q528.02814 28.784374 528.4344 28.55Q528.85626 28.3 529.02814 27.878124Q529.21564 27.45625 529.21564 26.659374L529.21564 23.33125L530.2625 23.33125L530.2625 29.55L529.325 29.55ZM532.2469 29.55L532.2469 23.33125L533.1844 23.33125L533.1844 24.20625Q533.8719 23.190624 535.16876 23.190624Q535.73126 23.190624 536.2 23.39375Q536.6844 23.596874 536.91876 23.925Q537.15314 24.253124 537.2469 24.690624Q537.29376 24.9875 537.29376 25.721874L537.29376 29.55L536.2469 29.55L536.2469 25.76875Q536.2469 25.1125 536.1219 24.8Q535.9969 24.4875 535.6844 24.3Q535.3719 24.096874 534.95 24.096874Q534.27814 24.096874 533.77814 24.534374Q533.29376 24.95625 533.29376 26.14375L533.29376 29.55L532.2469 29.55ZM543.27814 29.55L543.27814 28.76875Q542.6844 29.690624 541.54376 29.690624Q540.79376 29.690624 540.16876 29.284374Q539.54376 28.8625 539.2 28.128124Q538.85626 27.39375 538.85626 26.440624Q538.85626 25.51875 539.16876 24.753124Q539.48126 23.9875 540.10626 23.596874Q540.73126 23.190624 541.4969 23.190624Q542.0594 23.190624 542.4969 23.425Q542.9344 23.659374 543.21564 24.034374L543.21564 20.95625L544.2625 20.95625L544.2625 29.55L543.27814 29.55ZM539.95 26.440624Q539.95 27.64375 540.45 28.2375Q540.95 28.815624 541.6375 28.815624Q542.325 28.815624 542.8094 28.253124Q543.29376 27.690624 543.29376 26.534374Q543.29376 25.253124 542.79376 24.659374Q542.3094 24.065624 541.59064 24.065624Q540.8875 24.065624 540.41876 24.64375Q539.95 25.20625 539.95 26.440624ZM550.3094 28.784374Q549.71564 29.284374 549.16876 29.4875Q548.6375 29.690624 548.0125 29.690624Q546.98126 29.690624 546.4344 29.190624Q545.8875 28.690624 545.8875 27.909374Q545.8875 27.45625 546.09064 27.08125Q546.29376 26.690624 546.6375 26.471874Q546.98126 26.2375 547.40314 26.128124Q547.7 26.034374 548.34064 25.95625Q549.60626 25.815624 550.21564 25.596874Q550.21564 25.378124 550.21564 25.33125Q550.21564 24.675 549.91876 24.409374Q549.5125 24.065624 548.71564 24.065624Q547.98126 24.065624 547.6219 24.33125Q547.2625 24.58125 547.09064 25.2375L546.0594 25.096874Q546.2 24.440624 546.52814 24.034374Q546.85626 23.628124 547.46564 23.409374Q548.075 23.190624 548.8719 23.190624Q549.66876 23.190624 550.16876 23.378124Q550.66876 23.565624 550.90314 23.846874Q551.1375 24.128124 551.23126 24.565624Q551.27814 24.83125 551.27814 25.534374L551.27814 26.940624Q551.27814 28.409374 551.34064 28.8Q551.41876 29.190624 551.6219 29.55L550.5125 29.55Q550.35626 29.221874 550.3094 28.784374ZM550.21564 26.425Q549.6375 26.659374 548.4969 26.83125Q547.84064 26.925 547.575 27.05Q547.3094 27.159374 547.15314 27.378124Q547.0125 27.596874 547.0125 27.878124Q547.0125 28.3 547.325 28.58125Q547.65314 28.8625 548.2625 28.8625Q548.8719 28.8625 549.34064 28.596874Q549.825 28.33125 550.04376 27.8625Q550.21564 27.503124 550.21564 26.815624L550.21564 26.425ZM553.2 31.940624L553.075 30.95625Q553.41876 31.05 553.6844 31.05Q554.02814 31.05 554.23126 30.925Q554.45 30.815624 554.59064 30.6125Q554.6844 30.440624 554.91876 29.815624Q554.9344 29.7375 555.0125 29.565624L552.6375 23.33125L553.77814 23.33125L555.075 26.925Q555.325 27.6125 555.52814 28.378124Q555.71564 27.64375 555.96564 26.95625L557.29376 23.33125L558.34064 23.33125L555.98126 29.659374Q555.59064 30.675 555.3875 31.065624Q555.10626 31.596874 554.73126 31.83125Q554.3719 32.08125 553.8719 32.08125Q553.575 32.08125 553.2 31.940624Z" fill-rule="nonzero"/><path stroke="#a64d79" stroke-width="4.0" stroke-linecap="butt" d="M496.45 49.55L508.45 49.55" fill-rule="nonzero"/><path fill="#f3f3f3" d="M517.34064 53.55L517.34064 44.95625L519.0594 44.95625L521.09064 51.034374Q521.3719 51.89375 521.4969 52.315624Q521.6375 51.846874 521.95 50.940624L524.0125 44.95625L525.54376 44.95625L525.54376 53.55L524.45 53.55L524.45 46.3625L521.95 53.55L520.91876 53.55L518.4344 46.2375L518.4344 53.55L517.34064 53.55ZM525.85626 50.440624Q525.85626 48.70625 526.8094 47.878124Q527.60626 47.190624 528.7625 47.190624Q530.04376 47.190624 530.85626 48.034374Q531.6844 48.8625 531.6844 50.346874Q531.6844 51.55 531.325 52.2375Q530.96564 52.925 530.2625 53.315624Q529.575 53.690624 528.7625 53.690624Q527.46564 53.690624 526.65314 52.8625Q525.85626 52.01875 525.85626 50.440624ZM526.9344 50.440624Q526.9344 51.628124 527.45 52.221874Q527.98126 52.815624 528.7625 52.815624Q529.5594 52.815624 530.075 52.221874Q530.59064 51.628124 530.59064 50.409374Q530.59064 49.253124 530.0594 48.659374Q529.54376 48.065624 528.7625 48.065624Q527.98126 48.065624 527.45 48.659374Q526.9344 49.2375 526.9344 50.440624ZM533.2469 53.55L533.2469 47.33125L534.1844 47.33125L534.1844 48.20625Q534.8719 47.190624 536.16876 47.190624Q536.73126 47.190624 537.2 47.39375Q537.6844 47.596874 537.91876 47.925Q538.15314 48.253124 538.2469 48.690624Q538.29376 48.9875 538.29376 49.721874L538.29376 53.55L537.2469 53.55L537.2469 49.76875Q537.2469 49.1125 537.1219 48.8Q536.9969 48.4875 536.6844 48.3Q536.3719 48.096874 535.95 48.096874Q535.27814 48.096874 534.77814 48.534374Q534.29376 48.95625 534.29376 50.14375L534.29376 53.55L533.2469 53.55ZM544.27814 53.55L544.27814 52.76875Q543.6844 53.690624 542.54376 53.690624Q541.79376 53.690624 541.16876 53.284374Q540.54376 52.8625 540.2 52.128124Q539.85626 51.39375 539.85626 50.440624Q539.85626 49.51875 540.16876 48.753124Q540.48126 47.9875 541.10626 47.596874Q541.73126 47.190624 542.4969 47.190624Q543.0594 47.190624 543.4969 47.425Q543.9344 47.659374 544.21564 48.034374L544.21564 44.95625L545.2625 44.95625L545.2625 53.55L544.27814 53.55ZM540.95 50.440624Q540.95 51.64375 541.45 52.2375Q541.95 52.815624 542.6375 52.815624Q543.325 52.815624 543.8094 52.253124Q544.29376 51.690624 544.29376 50.534374Q544.29376 49.253124 543.79376 48.659374Q543.3094 48.065624 542.59064 48.065624Q541.8875 48.065624 541.41876 48.64375Q540.95 49.20625 540.95 50.440624ZM551.3094 52.784374Q550.71564 53.284374 550.16876 53.4875Q549.6375 53.690624 549.0125 53.690624Q547.98126 53.690624 547.4344 53.190624Q546.8875 52.690624 546.8875 51.909374Q546.8875 51.45625 547.09064 51.08125Q547.29376 50.690624 547.6375 50.471874Q547.98126 50.2375 548.40314 50.128124Q548.7 50.034374 549.34064 49.95625Q550.60626 49.815624 551.21564 49.596874Q551.21564 49.378124 551.21564 49.33125Q551.21564 48.675 550.91876 48.409374Q550.5125 48.065624 549.71564 48.065624Q548.98126 48.065624 548.6219 48.33125Q548.2625 48.58125 548.09064 49.2375L547.0594 49.096874Q547.2 48.440624 547.52814 48.034374Q547.85626 47.628124 548.46564 47.409374Q549.075 47.190624 549.8719 47.190624Q550.66876 47.190624 551.16876 47.378124Q551.66876 47.565624 551.90314 47.846874Q552.1375 48.128124 552.23126 48.565624Q552.27814 48.83125 552.27814 49.534374L552.27814 50.940624Q552.27814 52.409374 552.34064 52.8Q552.41876 53.190624 552.6219 53.55L551.5125 53.55Q551.35626 53.221874 551.3094 52.784374ZM551.21564 50.425Q550.6375 50.659374 549.4969 50.83125Q548.84064 50.925 548.575 51.05Q548.3094 51.159374 548.15314 51.378124Q548.0125 51.596874 548.0125 51.878124Q548.0125 52.3 548.325 52.58125Q548.65314 52.8625 549.2625 52.8625Q549.8719 52.8625 550.34064 52.596874Q550.825 52.33125 551.04376 51.8625Q551.21564 51.503124 551.21564 50.815624L551.21564 50.425ZM554.2 55.940624L554.075 54.95625Q554.41876 55.05 554.6844 55.05Q555.02814 55.05 555.23126 54.925Q555.45 54.815624 555.59064 54.6125Q555.6844 54.440624 555.91876 53.815624Q555.9344 53.7375 556.0125 53.565624L553.6375 47.33125L554.77814 47.33125L556.075 50.925Q556.325 51.6125 556.52814 52.378124Q556.71564 51.64375 556.96564 50.95625L558.29376 47.33125L559.34064 47.33125L556.98126 53.659374Q556.59064 54.675 556.3875 55.065624Q556.10626 55.596874 555.73126 55.83125Q555.3719 56.08125 554.8719 56.08125Q554.575 56.08125 554.2 55.940624Z" fill-rule="nonzero"/><path stroke="#c27ba0" stroke-width="4.0" stroke-linecap="butt" d="M496.45 73.55L508.45 73.55" fill-rule="nonzero"/><path fill="#f3f3f3" d="M519.5594 77.55L519.5594 69.97188L516.73126 69.97188L516.73126 68.95625L523.54376 68.95625L523.54376 69.97188L520.7 69.97188L520.7 77.55L519.5594 77.55ZM528.325 77.55L528.325 76.62813Q527.59064 77.69063 526.34064 77.69063Q525.79376 77.69063 525.3094 77.4875Q524.84064 77.26875 524.60626 76.95625Q524.3719 76.62813 524.27814 76.15938Q524.21564 75.8625 524.21564 75.175L524.21564 71.33125L525.27814 71.33125L525.27814 74.78438Q525.27814 75.59688 525.34064 75.89375Q525.4344 76.3 525.7469 76.55Q526.075 76.78438 526.5594 76.78438Q527.02814 76.78438 527.4344 76.55Q527.85626 76.3 528.02814 75.87813Q528.21564 75.45625 528.21564 74.65938L528.21564 71.33125L529.2625 71.33125L529.2625 77.55L528.325 77.55ZM535.4969 75.55L536.59064 75.675Q536.34064 76.62813 535.6375 77.15938Q534.9344 77.69063 533.85626 77.69063Q532.4969 77.69063 531.6844 76.84688Q530.8875 76.00313 530.8875 74.4875Q530.8875 72.925 531.7 72.06563Q532.5125 71.19063 533.79376 71.19063Q535.04376 71.19063 535.825 72.03438Q536.6219 72.87813 536.6219 74.425Q536.6219 74.51875 536.6219 74.70625L531.98126 74.70625Q532.04376 75.7375 532.5594 76.28438Q533.075 76.81563 533.85626 76.81563Q534.4344 76.81563 534.84064 76.51875Q535.2625 76.20625 535.4969 75.55ZM532.04376 73.84688L535.5125 73.84688Q535.45 73.05 535.1219 72.65938Q534.60626 72.05 533.8094 72.05Q533.075 72.05 532.575 72.53438Q532.09064 73.01875 532.04376 73.84688ZM537.825 75.69063L538.85626 75.53438Q538.95 76.15938 539.34064 76.4875Q539.7469 76.81563 540.48126 76.81563Q541.2 76.81563 541.54376 76.53438Q541.90314 76.2375 541.90314 75.83125Q541.90314 75.47188 541.59064 75.26875Q541.3719 75.12813 540.5125 74.90938Q539.35626 74.6125 538.90314 74.40938Q538.46564 74.19063 538.23126 73.81563Q537.9969 73.44063 537.9969 72.97188Q537.9969 72.56563 538.1844 72.20625Q538.3719 71.84688 538.7 71.6125Q538.95 71.44063 539.3719 71.31563Q539.79376 71.19063 540.29376 71.19063Q541.0125 71.19063 541.5594 71.40938Q542.1219 71.6125 542.3875 71.97188Q542.65314 72.33125 542.7469 72.925L541.71564 73.06563Q541.65314 72.59688 541.3094 72.33125Q540.98126 72.05 540.35626 72.05Q539.6375 72.05 539.325 72.3Q539.0125 72.53438 539.0125 72.8625Q539.0125 73.06563 539.1375 73.22188Q539.27814 73.39375 539.54376 73.50313Q539.7 73.56563 540.48126 73.76875Q541.60626 74.08125 542.04376 74.26875Q542.48126 74.45625 542.73126 74.81563Q542.98126 75.175 542.98126 75.72188Q542.98126 76.25313 542.66876 76.72188Q542.3719 77.175 541.79376 77.44063Q541.21564 77.69063 540.48126 77.69063Q539.2625 77.69063 538.6219 77.19063Q537.9969 76.675 537.825 75.69063ZM549.27814 77.55L549.27814 76.76875Q548.6844 77.69063 547.54376 77.69063Q546.79376 77.69063 546.16876 77.28438Q545.54376 76.8625 545.2 76.12813Q544.85626 75.39375 544.85626 74.44063Q544.85626 73.51875 545.16876 72.75313Q545.48126 71.9875 546.10626 71.59688Q546.73126 71.19063 547.4969 71.19063Q548.0594 71.19063 548.4969 71.425Q548.9344 71.65938 549.21564 72.03438L549.21564 68.95625L550.2625 68.95625L550.2625 77.55L549.27814 77.55ZM545.95 74.44063Q545.95 75.64375 546.45 76.2375Q546.95 76.81563 547.6375 76.81563Q548.325 76.81563 548.8094 76.25313Q549.29376 75.69063 549.29376 74.53438Q549.29376 73.25313 548.79376 72.65938Q548.3094 72.06563 547.59064 72.06563Q546.8875 72.06563 546.41876 72.64375Q545.95 73.20625 545.95 74.44063ZM556.3094 76.78438Q555.71564 77.28438 555.16876 77.4875Q554.6375 77.69063 554.0125 77.69063Q552.98126 77.69063 552.4344 77.19063Q551.8875 76.69063 551.8875 75.90938Q551.8875 75.45625 552.09064 75.08125Q552.29376 74.69063 552.6375 74.47188Q552.98126 74.2375 553.40314 74.12813Q553.7 74.03438 554.34064 73.95625Q555.60626 73.81563 556.21564 73.59688Q556.21564 73.37813 556.21564 73.33125Q556.21564 72.675 555.91876 72.40938Q555.5125 72.06563 554.71564 72.06563Q553.98126 72.06563 553.6219 72.33125Q553.2625 72.58125 553.09064 73.2375L552.0594 73.09688Q552.2 72.44063 552.52814 72.03438Q552.85626 71.62813 553.46564 71.40938Q554.075 71.19063 554.8719 71.19063Q555.66876 71.19063 556.16876 71.37813Q556.66876 71.56563 556.90314 71.84688Q557.1375 72.12813 557.23126 72.56563Q557.27814 72.83125 557.27814 73.53438L557.27814 74.94063Q557.27814 76.40938 557.34064 76.8Q557.41876 77.19063 557.6219 77.55L556.5125 77.55Q556.35626 77.22188 556.3094 76.78438ZM556.21564 74.425Q555.6375 74.65938 554.4969 74.83125Q553.84064 74.925 553.575 75.05Q553.3094 75.15938 553.15314 75.37813Q553.0125 75.59688 553.0125 75.87813Q553.0125 76.3 553.325 76.58125Q553.65314 76.8625 554.2625 76.8625Q554.8719 76.8625 555.34064 76.59688Q555.825 76.33125 556.04376 75.8625Q556.21564 75.50313 556.21564 74.81563L556.21564 74.425ZM559.2 79.94063L559.075 78.95625Q559.41876 79.05 559.6844 79.05Q560.02814 79.05 560.23126 78.925Q560.45 78.81563 560.59064 78.6125Q560.6844 78.44063 560.91876 77.81563Q560.9344 77.7375 561.0125 77.56563L558.6375 71.33125L559.77814 71.33125L561.075 74.925Q561.325 75.6125 561.52814 76.37813Q561.71564 75.64375 561.96564 74.95625L563.29376 71.33125L564.34064 71.33125L561.98126 77.65938Q561.59064 78.675 561.3875 79.06563Q561.10626 79.59688 560.73126 79.83125Q560.3719 80.08125 559.8719 80.08125Q559.575 80.08125 559.2 79.94063Z" fill-rule="nonzero"/><path stroke="#ead1dc" stroke-width="4.0" stroke-linecap="butt" d="M496.45 97.55L508.45 97.55" fill-rule="nonzero"/><path fill="#f3f3f3" d="M518.8719 101.55L516.59064 92.95625L517.7625 92.95625L519.075 98.59688Q519.27814 99.47188 519.4344 100.34688Q519.7625 98.97188 519.825 98.75313L521.45 92.95625L522.825 92.95625L524.0594 97.3Q524.5125 98.925 524.73126 100.34688Q524.8875 99.53438 525.15314 98.47188L526.4969 92.95625L527.6375 92.95625L525.29376 101.55L524.1844 101.55L522.3875 95.00313Q522.15314 94.19063 522.10626 94.00313Q521.98126 94.58125 521.85626 95.00313L520.04376 101.55L518.8719 101.55ZM532.4969 99.55L533.59064 99.675Q533.34064 100.62813 532.6375 101.15938Q531.9344 101.69063 530.85626 101.69063Q529.4969 101.69063 528.6844 100.84688Q527.8875 100.00313 527.8875 98.4875Q527.8875 96.925 528.7 96.06563Q529.5125 95.19063 530.79376 95.19063Q532.04376 95.19063 532.825 96.03438Q533.6219 96.87813 533.6219 98.425Q533.6219 98.51875 533.6219 98.70625L528.98126 98.70625Q529.04376 99.7375 529.5594 100.28438Q530.075 100.81563 530.85626 100.81563Q531.4344 100.81563 531.84064 100.51875Q532.2625 100.20625 532.4969 99.55ZM529.04376 97.84688L532.5125 97.84688Q532.45 97.05 532.1219 96.65938Q531.60626 96.05 530.8094 96.05Q530.075 96.05 529.575 96.53438Q529.09064 97.01875 529.04376 97.84688ZM539.27814 101.55L539.27814 100.76875Q538.6844 101.69063 537.54376 101.69063Q536.79376 101.69063 536.16876 101.28438Q535.54376 100.8625 535.2 100.12813Q534.85626 99.39375 534.85626 98.44063Q534.85626 97.51875 535.16876 96.75313Q535.48126 95.9875 536.10626 95.59688Q536.73126 95.19063 537.4969 95.19063Q538.0594 95.19063 538.4969 95.425Q538.9344 95.65938 539.21564 96.03438L539.21564 92.95625L540.2625 92.95625L540.2625 101.55L539.27814 101.55ZM535.95 98.44063Q535.95 99.64375 536.45 100.2375Q536.95 100.81563 537.6375 100.81563Q538.325 100.81563 538.8094 100.25313Q539.29376 99.69063 539.29376 98.53438Q539.29376 97.25313 538.79376 96.65938Q538.3094 96.06563 537.59064 96.06563Q536.8875 96.06563 536.41876 96.64375Q535.95 97.20625 535.95 98.44063ZM542.2469 101.55L542.2469 95.33125L543.1844 95.33125L543.1844 96.20625Q543.8719 95.19063 545.16876 95.19063Q545.73126 95.19063 546.2 95.39375Q546.6844 95.59688 546.91876 95.925Q547.15314 96.25313 547.2469 96.69063Q547.29376 96.9875 547.29376 97.72188L547.29376 101.55L546.2469 101.55L546.2469 97.76875Q546.2469 97.1125 546.1219 96.8Q545.9969 96.4875 545.6844 96.3Q545.3719 96.09688 544.95 96.09688Q544.27814 96.09688 543.77814 96.53438Q543.29376 96.95625 543.29376 98.14375L543.29376 101.55L542.2469 101.55ZM553.4969 99.55L554.59064 99.675Q554.34064 100.62813 553.6375 101.15938Q552.9344 101.69063 551.85626 101.69063Q550.4969 101.69063 549.6844 100.84688Q548.8875 100.00313 548.8875 98.4875Q548.8875 96.925 549.7 96.06563Q550.5125 95.19063 551.79376 95.19063Q553.04376 95.19063 553.825 96.03438Q554.6219 96.87813 554.6219 98.425Q554.6219 98.51875 554.6219 98.70625L549.98126 98.70625Q550.04376 99.7375 550.5594 100.28438Q551.075 100.81563 551.85626 100.81563Q552.4344 100.81563 552.84064 100.51875Q553.2625 100.20625 553.4969 99.55ZM550.04376 97.84688L553.5125 97.84688Q553.45 97.05 553.1219 96.65938Q552.60626 96.05 551.8094 96.05Q551.075 96.05 550.575 96.53438Q550.09064 97.01875 550.04376 97.84688ZM555.825 99.69063L556.85626 99.53438Q556.95 100.15938 557.34064 100.4875Q557.7469 100.81563 558.48126 100.81563Q559.2 100.81563 559.54376 100.53438Q559.90314 100.2375 559.90314 99.83125Q559.90314 99.47188 559.59064 99.26875Q559.3719 99.12813 558.5125 98.90938Q557.35626 98.6125 556.90314 98.40938Q556.46564 98.19063 556.23126 97.81563Q555.9969 97.44063 555.9969 96.97188Q555.9969 96.56563 556.1844 96.20625Q556.3719 95.84688 556.7 95.6125Q556.95 95.44063 557.3719 95.31563Q557.79376 95.19063 558.29376 95.19063Q559.0125 95.19063 559.5594 95.40938Q560.1219 95.6125 560.3875 95.97188Q560.65314 96.33125 560.7469 96.925L559.71564 97.06563Q559.65314 96.59688 559.3094 96.33125Q558.98126 96.05 558.35626 96.05Q557.6375 96.05 557.325 96.3Q557.0125 96.53438 557.0125 96.8625Q557.0125 97.06563 557.1375 97.22188Q557.27814 97.39375 557.54376 97.50313Q557.7 97.56563 558.48126 97.76875Q559.60626 98.08125 560.04376 98.26875Q560.48126 98.45625 560.73126 98.81563Q560.98126 99.175 560.98126 99.72188Q560.98126 100.25313 560.66876 100.72188Q560.3719 101.175 559.79376 101.44063Q559.21564 101.69063 558.48126 101.69063Q557.2625 101.69063 556.6219 101.19063Q555.9969 100.675 555.825 99.69063ZM567.27814 101.55L567.27814 100.76875Q566.6844 101.69063 565.54376 101.69063Q564.79376 101.69063 564.16876 101.28438Q563.54376 100.8625 563.2 100.12813Q562.85626 99.39375 562.85626 98.44063Q562.85626 97.51875 563.16876 96.75313Q563.48126 95.9875 564.10626 95.59688Q564.73126 95.19063 565.4969 95.19063Q566.0594 95.19063 566.4969 95.425Q566.9344 95.65938 567.21564 96.03438L567.21564 92.95625L568.2625 92.95625L568.2625 101.55L567.27814 101.55ZM563.95 98.44063Q563.95 99.64375 564.45 100.2375Q564.95 100.81563 565.6375 100.81563Q566.325 100.81563 566.8094 100.25313Q567.29376 99.69063 567.29376 98.53438Q567.29376 97.25313 566.79376 96.65938Q566.3094 96.06563 565.59064 96.06563Q564.8875 96.06563 564.41876 96.64375Q563.95 97.20625 563.95 98.44063ZM574.3094 100.78438Q573.71564 101.28438 573.16876 101.4875Q572.6375 101.69063 572.0125 101.69063Q570.98126 101.69063 570.4344 101.19063Q569.8875 100.69063 569.8875 99.90938Q569.8875 99.45625 570.09064 99.08125Q570.29376 98.69063 570.6375 98.47188Q570.98126 98.2375 571.40314 98.12813Q571.7 98.03438 572.34064 97.95625Q573.60626 97.81563 574.21564 97.59688Q574.21564 97.37813 574.21564 97.33125Q574.21564 96.675 573.91876 96.40938Q573.5125 96.06563 572.71564 96.06563Q571.98126 96.06563 571.6219 96.33125Q571.2625 96.58125 571.09064 97.2375L570.0594 97.09688Q570.2 96.44063 570.52814 96.03438Q570.85626 95.62813 571.46564 95.40938Q572.075 95.19063 572.8719 95.19063Q573.66876 95.19063 574.16876 95.37813Q574.66876 95.56563 574.90314 95.84688Q575.1375 96.12813 575.23126 96.56563Q575.27814 96.83125 575.27814 97.53438L575.27814 98.94063Q575.27814 100.40938 575.34064 100.8Q575.41876 101.19063 575.6219 101.55L574.5125 101.55Q574.35626 101.22188 574.3094 100.78438ZM574.21564 98.425Q573.6375 98.65938 572.4969 98.83125Q571.84064 98.925 571.575 99.05Q571.3094 99.15938 571.15314 99.37813Q571.0125 99.59688 571.0125 99.87813Q571.0125 100.3 571.325 100.58125Q571.65314 100.8625 572.2625 100.8625Q572.8719 100.8625 573.34064 100.59688Q573.825 100.33125 574.04376 99.8625Q574.21564 99.50313 574.21564 98.81563L574.21564 98.425ZM577.2 103.94063L577.075 102.95625Q577.41876 103.05 577.6844 103.05Q578.02814 103.05 578.23126 102.925Q578.45 102.81563 578.59064 102.6125Q578.6844 102.44063 578.91876 101.81563Q578.9344 101.7375 579.0125 101.56563L576.6375 95.33125L577.77814 95.33125L579.075 98.925Q579.325 99.6125 579.52814 100.37813Q579.71564 99.64375 579.96564 98.95625L581.29376 95.33125L582.34064 95.33125L579.98126 101.65938Q579.59064 102.675 579.3875 103.06563Q579.10626 103.59688 578.73126 103.83125Q578.3719 104.08125 577.8719 104.08125Q577.575 104.08125 577.2 103.94063Z" fill-rule="nonzero"/><path stroke="#0b5394" stroke-width="4.0" stroke-linecap="butt" d="M496.45 121.55L508.45 121.55" fill-rule="nonzero"/><path fill="#f3f3f3" d="M519.5594 125.55L519.5594 117.97188L516.73126 117.97188L516.73126 116.95625L523.54376 116.95625L523.54376 117.97188L520.7 117.97188L520.7 125.55L519.5594 125.55ZM524.2469 125.55L524.2469 116.95625L525.29376 116.95625L525.29376 120.03438Q526.02814 119.19063 527.15314 119.19063Q527.85626 119.19063 528.35626 119.47188Q528.8719 119.7375 529.09064 120.22188Q529.3094 120.69063 529.3094 121.6125L529.3094 125.55L528.2625 125.55L528.2625 121.6125Q528.2625 120.81563 527.91876 120.45625Q527.575 120.09688 526.95 120.09688Q526.48126 120.09688 526.0594 120.34688Q525.65314 120.58125 525.46564 121.00313Q525.29376 121.40938 525.29376 122.14375L525.29376 125.55L524.2469 125.55ZM535.325 125.55L535.325 124.62813Q534.59064 125.69063 533.34064 125.69063Q532.79376 125.69063 532.3094 125.4875Q531.84064 125.26875 531.60626 124.95625Q531.3719 124.62813 531.27814 124.15938Q531.21564 123.8625 531.21564 123.175L531.21564 119.33125L532.27814 119.33125L532.27814 122.78438Q532.27814 123.59688 532.34064 123.89375Q532.4344 124.3 532.7469 124.55Q533.075 124.78438 533.5594 124.78438Q534.02814 124.78438 534.4344 124.55Q534.85626 124.3 535.02814 123.87813Q535.21564 123.45625 535.21564 122.65938L535.21564 119.33125L536.2625 119.33125L536.2625 125.55L535.325 125.55ZM538.23126 125.55L538.23126 119.33125L539.1844 119.33125L539.1844 120.26875Q539.54376 119.6125 539.84064 119.40938Q540.15314 119.19063 540.52814 119.19063Q541.0594 119.19063 541.60626 119.51875L541.2469 120.50313Q540.85626 120.26875 540.48126 120.26875Q540.1219 120.26875 539.84064 120.4875Q539.575 120.69063 539.46564 121.06563Q539.27814 121.62813 539.27814 122.28438L539.27814 125.55L538.23126 125.55ZM541.825 123.69063L542.85626 123.53438Q542.95 124.15938 543.34064 124.4875Q543.7469 124.81563 544.48126 124.81563Q545.2 124.81563 545.54376 124.53438Q545.90314 124.2375 545.90314 123.83125Q545.90314 123.47188 545.59064 123.26875Q545.3719 123.12813 544.5125 122.90938Q543.35626 122.6125 542.90314 122.40938Q542.46564 122.19063 542.23126 121.81563Q541.9969 121.44063 541.9969 120.97188Q541.9969 120.56563 542.1844 120.20625Q542.3719 119.84688 542.7 119.6125Q542.95 119.44063 543.3719 119.31563Q543.79376 119.19063 544.29376 119.19063Q545.0125 119.19063 545.5594 119.40938Q546.1219 119.6125 546.3875 119.97188Q546.65314 120.33125 546.7469 120.925L545.71564 121.06563Q545.65314 120.59688 545.3094 120.33125Q544.98126 120.05 544.35626 120.05Q543.6375 120.05 543.325 120.3Q543.0125 120.53438 543.0125 120.8625Q543.0125 121.06563 543.1375 121.22188Q543.27814 121.39375 543.54376 121.50313Q543.7 121.56563 544.48126 121.76875Q545.60626 122.08125 546.04376 122.26875Q546.48126 122.45625 546.73126 122.81563Q546.98126 123.175 546.98126 123.72188Q546.98126 124.25313 546.66876 124.72188Q546.3719 125.175 545.79376 125.44063Q545.21564 125.69063 544.48126 125.69063Q543.2625 125.69063 542.6219 125.19063Q541.9969 124.675 541.825 123.69063ZM553.27814 125.55L553.27814 124.76875Q552.6844 125.69063 551.54376 125.69063Q550.79376 125.69063 550.16876 125.28438Q549.54376 124.8625 549.2 124.12813Q548.85626 123.39375 548.85626 122.44063Q548.85626 121.51875 549.16876 120.75313Q549.48126 119.9875 550.10626 119.59688Q550.73126 119.19063 551.4969 119.19063Q552.0594 119.19063 552.4969 119.425Q552.9344 119.65938 553.21564 120.03438L553.21564 116.95625L554.2625 116.95625L554.2625 125.55L553.27814 125.55ZM549.95 122.44063Q549.95 123.64375 550.45 124.2375Q550.95 124.81563 551.6375 124.81563Q552.325 124.81563 552.8094 124.25313Q553.29376 123.69063 553.29376 122.53438Q553.29376 121.25313 552.79376 120.65938Q552.3094 120.06563 551.59064 120.06563Q550.8875 120.06563 550.41876 120.64375Q549.95 121.20625 549.95 122.44063ZM560.3094 124.78438Q559.71564 125.28438 559.16876 125.4875Q558.6375 125.69063 558.0125 125.69063Q556.98126 125.69063 556.4344 125.19063Q555.8875 124.69063 555.8875 123.90938Q555.8875 123.45625 556.09064 123.08125Q556.29376 122.69063 556.6375 122.47188Q556.98126 122.2375 557.40314 122.12813Q557.7 122.03438 558.34064 121.95625Q559.60626 121.81563 560.21564 121.59688Q560.21564 121.37813 560.21564 121.33125Q560.21564 120.675 559.91876 120.40938Q559.5125 120.06563 558.71564 120.06563Q557.98126 120.06563 557.6219 120.33125Q557.2625 120.58125 557.09064 121.2375L556.0594 121.09688Q556.2 120.44063 556.52814 120.03438Q556.85626 119.62813 557.46564 119.40938Q558.075 119.19063 558.8719 119.19063Q559.66876 119.19063 560.16876 119.37813Q560.66876 119.56563 560.90314 119.84688Q561.1375 120.12813 561.23126 120.56563Q561.27814 120.83125 561.27814 121.53438L561.27814 122.94063Q561.27814 124.40938 561.34064 124.8Q561.41876 125.19063 561.6219 125.55L560.5125 125.55Q560.35626 125.22188 560.3094 124.78438ZM560.21564 122.425Q559.6375 122.65938 558.4969 122.83125Q557.84064 122.925 557.575 123.05Q557.3094 123.15938 557.15314 123.37813Q557.0125 123.59688 557.0125 123.87813Q557.0125 124.3 557.325 124.58125Q557.65314 124.8625 558.2625 124.8625Q558.8719 124.8625 559.34064 124.59688Q559.825 124.33125 560.04376 123.8625Q560.21564 123.50313 560.21564 122.81563L560.21564 122.425ZM563.2 127.94063L563.075 126.95625Q563.41876 127.05 563.6844 127.05Q564.02814 127.05 564.23126 126.925Q564.45 126.81563 564.59064 126.6125Q564.6844 126.44063 564.91876 125.81563Q564.9344 125.7375 565.0125 125.56563L562.6375 119.33125L563.77814 119.33125L565.075 122.925Q565.325 123.6125 565.52814 124.37813Q565.71564 123.64375 565.96564 122.95625L567.29376 119.33125L568.34064 119.33125L565.98126 125.65938Q565.59064 126.675 565.3875 127.06563Q565.10626 127.59688 564.73126 127.83125Q564.3719 128.08125 563.8719 128.08125Q563.575 128.08125 563.2 127.94063Z" fill-rule="nonzero"/><path stroke="#6fa8dc" stroke-width="4.0" stroke-linecap="butt" d="M496.45 145.55L508.45 145.55" fill-rule="nonzero"/><path fill="#f3f3f3" d="M517.4344 149.55L517.4344 140.95625L523.23126 140.95625L523.23126 141.97188L518.575 141.97188L518.575 144.62813L522.60626 144.62813L522.60626 145.64375L518.575 145.64375L518.575 149.55L517.4344 149.55ZM524.23126 149.55L524.23126 143.33125L525.1844 143.33125L525.1844 144.26875Q525.54376 143.6125 525.84064 143.40938Q526.15314 143.19063 526.52814 143.19063Q527.0594 143.19063 527.60626 143.51875L527.2469 144.50313Q526.85626 144.26875 526.48126 144.26875Q526.1219 144.26875 525.84064 144.4875Q525.575 144.69063 525.46564 145.06563Q525.27814 145.62813 525.27814 146.28438L525.27814 149.55L524.23126 149.55ZM528.2469 142.175L528.2469 140.95625L529.3094 140.95625L529.3094 142.175L528.2469 142.175ZM528.2469 149.55L528.2469 143.33125L529.3094 143.33125L529.3094 149.55L528.2469 149.55ZM535.27814 149.55L535.27814 148.76875Q534.6844 149.69063 533.54376 149.69063Q532.79376 149.69063 532.16876 149.28438Q531.54376 148.8625 531.2 148.12813Q530.85626 147.39375 530.85626 146.44063Q530.85626 145.51875 531.16876 144.75313Q531.48126 143.9875 532.10626 143.59688Q532.73126 143.19063 533.4969 143.19063Q534.0594 143.19063 534.4969 143.425Q534.9344 143.65938 535.21564 144.03438L535.21564 140.95625L536.2625 140.95625L536.2625 149.55L535.27814 149.55ZM531.95 146.44063Q531.95 147.64375 532.45 148.2375Q532.95 148.81563 533.6375 148.81563Q534.325 148.81563 534.8094 148.25313Q535.29376 147.69063 535.29376 146.53438Q535.29376 145.25313 534.79376 144.65938Q534.3094 144.06563 533.59064 144.06563Q532.8875 144.06563 532.41876 144.64375Q531.95 145.20625 531.95 146.44063ZM542.3094 148.78438Q541.71564 149.28438 541.16876 149.4875Q540.6375 149.69063 540.0125 149.69063Q538.98126 149.69063 538.4344 149.19063Q537.8875 148.69063 537.8875 147.90938Q537.8875 147.45625 538.09064 147.08125Q538.29376 146.69063 538.6375 146.47188Q538.98126 146.2375 539.40314 146.12813Q539.7 146.03438 540.34064 145.95625Q541.60626 145.81563 542.21564 145.59688Q542.21564 145.37813 542.21564 145.33125Q542.21564 144.675 541.91876 144.40938Q541.5125 144.06563 540.71564 144.06563Q539.98126 144.06563 539.6219 144.33125Q539.2625 144.58125 539.09064 145.2375L538.0594 145.09688Q538.2 144.44063 538.52814 144.03438Q538.85626 143.62813 539.46564 143.40938Q540.075 143.19063 540.8719 143.19063Q541.66876 143.19063 542.16876 143.37813Q542.66876 143.56563 542.90314 143.84688Q543.1375 144.12813 543.23126 144.56563Q543.27814 144.83125 543.27814 145.53438L543.27814 146.94063Q543.27814 148.40938 543.34064 148.8Q543.41876 149.19063 543.6219 149.55L542.5125 149.55Q542.35626 149.22188 542.3094 148.78438ZM542.21564 146.425Q541.6375 146.65938 540.4969 146.83125Q539.84064 146.925 539.575 147.05Q539.3094 147.15938 539.15314 147.37813Q539.0125 147.59688 539.0125 147.87813Q539.0125 148.3 539.325 148.58125Q539.65314 148.8625 540.2625 148.8625Q540.8719 148.8625 541.34064 148.59688Q541.825 148.33125 542.04376 147.8625Q542.21564 147.50313 542.21564 146.81563L542.21564 146.425ZM545.2 151.94063L545.075 150.95625Q545.41876 151.05 545.6844 151.05Q546.02814 151.05 546.23126 150.925Q546.45 150.81563 546.59064 150.6125Q546.6844 150.44063 546.91876 149.81563Q546.9344 149.7375 547.0125 149.56563L544.6375 143.33125L545.77814 143.33125L547.075 146.925Q547.325 147.6125 547.52814 148.37813Q547.71564 147.64375 547.96564 146.95625L549.29376 143.33125L550.34064 143.33125L547.98126 149.65938Q547.59064 150.675 547.3875 151.06563Q547.10626 151.59688 546.73126 151.83125Q546.3719 152.08125 545.8719 152.08125Q545.575 152.08125 545.2 151.94063Z" fill-rule="nonzero"/><path stroke="#b4a7d6" stroke-width="4.0" stroke-linecap="butt" d="M496.45 169.55L508.45 169.55" fill-rule="nonzero"/><path fill="#f3f3f3" d="M516.9969 170.78438L518.0594 170.69063Q518.1375 171.34688 518.41876 171.75313Q518.7 172.15938 519.27814 172.425Q519.8719 172.675 520.60626 172.675Q521.2469 172.675 521.7469 172.4875Q522.2469 172.28438 522.48126 171.95625Q522.73126 171.6125 522.73126 171.22188Q522.73126 170.81563 522.4969 170.51875Q522.2625 170.20625 521.73126 170.00313Q521.3719 169.8625 520.1844 169.58125Q519.0125 169.3 518.54376 169.05Q517.91876 168.72188 517.6219 168.25313Q517.325 167.76875 517.325 167.175Q517.325 166.53438 517.6844 165.97188Q518.0594 165.39375 518.7625 165.1125Q519.48126 164.81563 520.34064 164.81563Q521.29376 164.81563 522.02814 165.12813Q522.7625 165.425 523.15314 166.03438Q523.54376 166.62813 523.575 167.37813L522.48126 167.45625Q522.3875 166.64375 521.8719 166.2375Q521.3719 165.81563 520.3875 165.81563Q519.35626 165.81563 518.8875 166.19063Q518.41876 166.56563 518.41876 167.09688Q518.41876 167.56563 518.7469 167.8625Q519.075 168.15938 520.45 168.47188Q521.84064 168.78438 522.35626 169.01875Q523.10626 169.37813 523.46564 169.90938Q523.825 170.425 523.825 171.12813Q523.825 171.81563 523.4344 172.425Q523.04376 173.01875 522.3094 173.3625Q521.575 173.69063 520.65314 173.69063Q519.48126 173.69063 518.6844 173.3625Q517.90314 173.01875 517.45 172.33125Q517.0125 171.64375 516.9969 170.78438ZM529.3094 172.78438Q528.71564 173.28438 528.16876 173.4875Q527.6375 173.69063 527.0125 173.69063Q525.98126 173.69063 525.4344 173.19063Q524.8875 172.69063 524.8875 171.90938Q524.8875 171.45625 525.09064 171.08125Q525.29376 170.69063 525.6375 170.47188Q525.98126 170.2375 526.40314 170.12813Q526.7 170.03438 527.34064 169.95625Q528.60626 169.81563 529.21564 169.59688Q529.21564 169.37813 529.21564 169.33125Q529.21564 168.675 528.91876 168.40938Q528.5125 168.06563 527.71564 168.06563Q526.98126 168.06563 526.6219 168.33125Q526.2625 168.58125 526.09064 169.2375L525.0594 169.09688Q525.2 168.44063 525.52814 168.03438Q525.85626 167.62813 526.46564 167.40938Q527.075 167.19063 527.8719 167.19063Q528.66876 167.19063 529.16876 167.37813Q529.66876 167.56563 529.90314 167.84688Q530.1375 168.12813 530.23126 168.56563Q530.27814 168.83125 530.27814 169.53438L530.27814 170.94063Q530.27814 172.40938 530.34064 172.8Q530.41876 173.19063 530.6219 173.55L529.5125 173.55Q529.35626 173.22188 529.3094 172.78438ZM529.21564 170.425Q528.6375 170.65938 527.4969 170.83125Q526.84064 170.925 526.575 171.05Q526.3094 171.15938 526.15314 171.37813Q526.0125 171.59688 526.0125 171.87813Q526.0125 172.3 526.325 172.58125Q526.65314 172.8625 527.2625 172.8625Q527.8719 172.8625 528.34064 172.59688Q528.825 172.33125 529.04376 171.8625Q529.21564 171.50313 529.21564 170.81563L529.21564 170.425ZM534.54376 172.6125L534.7 173.53438Q534.2469 173.62813 533.90314 173.62813Q533.325 173.62813 533.0125 173.45625Q532.7 173.26875 532.5594 172.97188Q532.4344 172.675 532.4344 171.72188L532.4344 168.14375L531.66876 168.14375L531.66876 167.33125L532.4344 167.33125L532.4344 165.78438L533.48126 165.15938L533.48126 167.33125L534.54376 167.33125L534.54376 168.14375L533.48126 168.14375L533.48126 171.78438Q533.48126 172.2375 533.52814 172.3625Q533.59064 172.4875 533.71564 172.56563Q533.84064 172.64375 534.075 172.64375Q534.2625 172.64375 534.54376 172.6125ZM539.325 173.55L539.325 172.62813Q538.59064 173.69063 537.34064 173.69063Q536.79376 173.69063 536.3094 173.4875Q535.84064 173.26875 535.60626 172.95625Q535.3719 172.62813 535.27814 172.15938Q535.21564 171.8625 535.21564 171.175L535.21564 167.33125L536.27814 167.33125L536.27814 170.78438Q536.27814 171.59688 536.34064 171.89375Q536.4344 172.3 536.7469 172.55Q537.075 172.78438 537.5594 172.78438Q538.02814 172.78438 538.4344 172.55Q538.85626 172.3 539.02814 171.87813Q539.21564 171.45625 539.21564 170.65938L539.21564 167.33125L540.2625 167.33125L540.2625 173.55L539.325 173.55ZM542.23126 173.55L542.23126 167.33125L543.1844 167.33125L543.1844 168.26875Q543.54376 167.6125 543.84064 167.40938Q544.15314 167.19063 544.52814 167.19063Q545.0594 167.19063 545.60626 167.51875L545.2469 168.50313Q544.85626 168.26875 544.48126 168.26875Q544.1219 168.26875 543.84064 168.4875Q543.575 168.69063 543.46564 169.06563Q543.27814 169.62813 543.27814 170.28438L543.27814 173.55L542.23126 173.55ZM550.27814 173.55L550.27814 172.76875Q549.6844 173.69063 548.54376 173.69063Q547.79376 173.69063 547.16876 173.28438Q546.54376 172.8625 546.2 172.12813Q545.85626 171.39375 545.85626 170.44063Q545.85626 169.51875 546.16876 168.75313Q546.48126 167.9875 547.10626 167.59688Q547.73126 167.19063 548.4969 167.19063Q549.0594 167.19063 549.4969 167.425Q549.9344 167.65938 550.21564 168.03438L550.21564 164.95625L551.2625 164.95625L551.2625 173.55L550.27814 173.55ZM546.95 170.44063Q546.95 171.64375 547.45 172.2375Q547.95 172.81563 548.6375 172.81563Q549.325 172.81563 549.8094 172.25313Q550.29376 171.69063 550.29376 170.53438Q550.29376 169.25313 549.79376 168.65938Q549.3094 168.06563 548.59064 168.06563Q547.8875 168.06563 547.41876 168.64375Q546.95 169.20625 546.95 170.44063ZM557.3094 172.78438Q556.71564 173.28438 556.16876 173.4875Q555.6375 173.69063 555.0125 173.69063Q553.98126 173.69063 553.4344 173.19063Q552.8875 172.69063 552.8875 171.90938Q552.8875 171.45625 553.09064 171.08125Q553.29376 170.69063 553.6375 170.47188Q553.98126 170.2375 554.40314 170.12813Q554.7 170.03438 555.34064 169.95625Q556.60626 169.81563 557.21564 169.59688Q557.21564 169.37813 557.21564 169.33125Q557.21564 168.675 556.91876 168.40938Q556.5125 168.06563 555.71564 168.06563Q554.98126 168.06563 554.6219 168.33125Q554.2625 168.58125 554.09064 169.2375L553.0594 169.09688Q553.2 168.44063 553.52814 168.03438Q553.85626 167.62813 554.46564 167.40938Q555.075 167.19063 555.8719 167.19063Q556.66876 167.19063 557.16876 167.37813Q557.66876 167.56563 557.90314 167.84688Q558.1375 168.12813 558.23126 168.56563Q558.27814 168.83125 558.27814 169.53438L558.27814 170.94063Q558.27814 172.40938 558.34064 172.8Q558.41876 173.19063 558.6219 173.55L557.5125 173.55Q557.35626 173.22188 557.3094 172.78438ZM557.21564 170.425Q556.6375 170.65938 555.4969 170.83125Q554.84064 170.925 554.575 171.05Q554.3094 171.15938 554.15314 171.37813Q554.0125 171.59688 554.0125 171.87813Q554.0125 172.3 554.325 172.58125Q554.65314 172.8625 555.2625 172.8625Q555.8719 172.8625 556.34064 172.59688Q556.825 172.33125 557.04376 171.8625Q557.21564 171.50313 557.21564 170.81563L557.21564 170.425ZM560.2 175.94063L560.075 174.95625Q560.41876 175.05 560.6844 175.05Q561.02814 175.05 561.23126 174.925Q561.45 174.81563 561.59064 174.6125Q561.6844 174.44063 561.91876 173.81563Q561.9344 173.7375 562.0125 173.56563L559.6375 167.33125L560.77814 167.33125L562.075 170.925Q562.325 171.6125 562.52814 172.37813Q562.71564 171.64375 562.96564 170.95625L564.29376 167.33125L565.34064 167.33125L562.98126 173.65938Q562.59064 174.675 562.3875 175.06563Q562.10626 175.59688 561.73126 175.83125Q561.3719 176.08125 560.8719 176.08125Q560.575 176.08125 560.2 175.94063Z" fill-rule="nonzero"/></svg>